<svg width="284" height="258" viewBox="0 0 284 258" fill="none" xmlns="http://www.w3.org/2000/svg">
<path fill-rule="evenodd" clip-rule="evenodd" d="M28.5567 122.211C36.5064 135.006 56.9952 159.307 71.1996 172.807C77.8844 179.207 89.304 188.279 95.8019 192.399C110.82 201.91 137.358 212.658 159.551 218.262C182.154 223.945 208.073 227.455 235.825 228.651L245.597 229.074L242.553 230.306C240.873 230.977 235.991 232.935 231.731 234.654L223.954 237.77L222.412 240.437C219.484 245.479 217.072 256.341 218.645 257.361C219.3 257.794 222.619 257.114 224.752 256.098C225.735 255.608 227.863 254.999 229.453 254.8C231.518 254.531 232.623 254.146 233.223 253.444C233.777 252.883 237.56 250.998 242.951 248.715C258.465 242.077 264.267 239.827 270.073 238.192L275.694 236.602L277.553 234.014C281.013 229.11 284.915 213.803 283.428 210.818C282.689 209.335 277.485 207.442 256.646 201.069C247.346 198.203 230.892 192.825 220.104 188.968L200.489 182.08L198.924 184.237C195.979 188.362 192.368 201.744 193.561 204.14C193.789 204.596 207.858 212.064 212.963 214.409L215.945 215.748L213.056 215.573C207.764 215.22 186.161 212.147 179.202 210.772C162.812 207.523 143.794 201.738 130.409 195.97C110.585 187.407 92.9989 175.948 80.0294 163.114C64.6748 147.956 51.268 131.876 39.7163 114.918C34.3975 107.078 21.9109 82.0176 19.1295 73.6013C14.3781 59.0938 9.9317 36.6495 8.46442 19.58C8.07897 14.7642 8.17903 13.3852 9.52805 8.84434C11.148 3.31406 11.129 -0.0230204 9.41991 0.496295C6.76295 1.25056 2.20137 12.4001 1.31972 20.4343C0.554232 26.7967 0.932376 32.9453 2.76209 45.5384C5.1172 61.8807 8.35232 75.4823 13.1653 89.5557C15.4859 96.3503 24.8739 116.214 28.6309 122.174L28.5567 122.211Z" fill="black"/>
</svg>
