<svg width="168" height="329" viewBox="0 0 168 329" fill="none" xmlns="http://www.w3.org/2000/svg">
<path fill-rule="evenodd" clip-rule="evenodd" d="M0.38288 110.953C0.599062 125.475 5.46478 155.732 10.5 173.942C12.8464 182.551 17.7788 195.72 21.1029 202.351C28.7915 217.668 45.3866 239.729 60.9447 255.38C76.8021 271.301 96.4791 287.072 118.82 301.841L126.686 307.044L123.559 306.55C121.837 306.271 116.831 305.464 112.457 304.77L104.482 303.483L101.884 304.921C96.9599 307.635 89.5721 315.413 90.3657 317.037C90.6926 317.721 93.7732 318.806 96.0404 319.026C97.096 319.11 99.1566 319.663 100.57 320.288C102.411 321.091 103.515 321.322 104.359 321.039C105.095 320.851 109.158 321.171 114.747 321.962C130.864 324.18 136.776 325.201 142.386 326.733L147.821 328.21L150.643 326.994C155.937 324.659 166.763 313.947 167.016 310.742C167.142 309.149 163.782 305.001 149.724 289.386C143.462 282.399 132.534 269.785 125.533 261.24L112.743 245.807L110.379 246.812C105.897 248.759 96.2674 258.025 96.0643 260.598C96.0256 261.088 103.945 274.246 106.998 278.719L108.798 281.306L106.498 279.727C102.3 276.807 85.9722 263.54 80.9037 258.949C68.9726 248.125 56.1276 233.9 47.9304 222.487C35.7993 205.566 26.9557 187.363 22.6101 170.317C17.4476 150.165 14.3531 130.218 13.227 110.468C12.7247 101.347 14.8494 74.4365 16.7301 66.0998C20.0073 51.751 27.4778 30.9945 34.7414 16.1591C36.8142 11.9878 37.5817 10.8978 40.9514 7.81499C45.0363 4.04905 46.6777 1.28175 45.0074 0.862236C42.4371 0.166222 33.1308 7.11536 28.4126 13.3173C24.6206 18.1952 21.8799 23.4644 17.1387 34.7802C10.97 49.4555 6.88942 62.3027 3.87861 76.3233C2.42242 83.0909 0.317393 104.168 0.462562 110.96L0.38288 110.953Z" fill="black"/>
</svg>
