<svg width="116" height="107" viewBox="0 0 116 107" fill="none" xmlns="http://www.w3.org/2000/svg">
<path fill-rule="evenodd" clip-rule="evenodd" d="M11.4473 50.5836C14.6554 55.849 22.9546 65.8683 28.7202 71.4445C31.4334 74.088 36.075 77.8421 38.7198 79.5516C44.8326 83.498 55.6565 87.9919 64.7198 90.3647C73.9509 92.7718 84.5467 94.3009 95.9012 94.8894L99.8995 95.0976L98.6492 95.591C97.9592 95.8596 95.9542 96.6435 94.2045 97.3318L91.0101 98.5793L90.3695 99.6654C89.1531 101.719 88.1268 106.156 88.767 106.579C89.0338 106.759 90.3946 106.492 91.2713 106.084C91.6754 105.887 92.5483 105.645 93.2001 105.569C94.0463 105.467 94.4999 105.313 94.7477 105.028C94.9765 104.8 96.5318 104.042 98.7465 103.127C105.12 100.466 107.503 99.5654 109.885 98.9169L112.191 98.2861L112.961 97.2336C114.395 95.2386 116.047 88.9876 115.449 87.7605C115.151 87.1508 113.029 86.3573 104.522 83.6746C100.726 82.4682 94.0103 80.2085 89.6084 78.5914L81.6047 75.7021L80.9566 76.579C79.7365 78.2571 78.2105 83.7213 78.6906 84.7061C78.782 84.8937 84.5139 88.0004 86.5947 88.9788L87.8105 89.5373L86.6289 89.4554C84.464 89.2919 75.6329 87.957 72.7896 87.3696C66.093 85.9809 58.3294 83.5453 52.8718 81.1368C44.7883 77.561 37.6313 72.8081 32.3688 67.509C26.1384 61.2501 20.7084 54.6204 16.0409 47.6384C13.892 44.4104 8.87075 34.1088 7.7624 30.6541C5.86946 24.6993 4.12974 15.497 3.59016 8.50527C3.4496 6.53278 3.49548 5.96871 4.06384 4.11498C4.74665 1.85723 4.75078 0.491321 4.0494 0.697764C2.95922 0.996993 1.05236 5.54416 0.662797 8.8294C0.326765 11.4308 0.459576 13.9487 1.16349 19.1096C2.06906 25.8069 3.3446 31.3855 5.26426 37.1629C6.18982 39.9522 9.96134 48.1158 11.4778 50.5687L11.4473 50.5836Z" fill="black"/>
</svg>
