<svg width="181" height="204" viewBox="0 0 181 204" fill="none" xmlns="http://www.w3.org/2000/svg">
<path fill-rule="evenodd" clip-rule="evenodd" d="M10.9067 88.2645C15.1417 98.073 26.9661 117.266 35.5145 128.225C39.5326 133.415 46.5918 140.976 50.7178 144.547C60.2551 152.793 77.7438 163.114 92.7234 169.371C107.982 175.728 125.795 180.907 145.136 184.655L151.947 185.976L149.682 186.521C148.434 186.816 144.804 187.677 141.636 188.437L135.854 189.807L134.493 191.516C131.91 194.746 129.079 202.112 130.076 202.993C130.49 203.365 132.889 203.236 134.492 202.747C135.233 202.507 136.789 202.302 137.926 202.329C139.403 202.357 140.218 202.203 140.712 201.773C141.159 201.438 144.011 200.512 148.032 199.476C159.61 196.446 163.915 195.476 168.159 194.938L172.269 194.412L173.844 192.791C176.785 189.714 181.127 179.386 180.397 177.136C180.034 176.019 176.583 174.145 162.633 167.49C156.41 164.505 145.432 159.008 138.269 155.172L125.232 148.284L123.908 149.632C121.41 152.217 117.474 161.225 118.06 163.031C118.172 163.375 127.258 170.088 130.593 172.269L132.544 173.52L130.536 173.095C126.861 172.292 112.03 167.872 107.293 166.178C96.1368 162.181 83.4027 156.129 74.6188 150.68C61.6107 142.595 50.4763 132.714 42.7242 122.352C33.5428 110.11 25.8244 97.4246 19.4992 84.3186C16.5902 78.2615 10.4586 59.3742 9.38994 53.179C7.57788 42.5047 6.81187 26.2951 7.57208 14.1678C7.80657 10.7494 8.02132 9.79256 9.4436 6.74881C11.1597 3.03943 11.4962 0.696659 10.2429 0.881751C8.3001 1.1323 3.93157 8.4749 2.47088 14.0181C1.26695 18.4007 0.887621 22.7533 0.850921 31.7785C0.789709 43.4887 1.63309 53.3687 3.5338 63.7449C4.44929 68.7543 8.95216 83.6716 10.9626 88.2463L10.9067 88.2645Z" fill="black"/>
</svg>
