<svg width="143" height="124" viewBox="0 0 143 124" fill="none" xmlns="http://www.w3.org/2000/svg">
<path fill-rule="evenodd" clip-rule="evenodd" d="M15.2873 59.7579C19.3691 65.9594 29.7773 77.6677 36.9499 84.1357C40.326 87.2028 46.0694 91.5254 49.3239 93.4714C56.8458 97.9635 70.0599 102.917 81.0663 105.391C92.2759 107.9 105.091 109.295 118.78 109.526L123.6 109.608L122.116 110.255C121.297 110.607 118.917 111.634 116.84 112.536L113.049 114.172L112.324 115.506C110.946 118.028 109.897 123.411 110.686 123.893C111.014 124.098 112.641 123.719 113.678 123.192C114.156 122.938 115.197 122.61 115.978 122.491C116.992 122.332 117.531 122.128 117.818 121.775C118.083 121.491 119.923 120.514 122.55 119.319C130.108 115.849 132.937 114.665 135.777 113.785L138.525 112.929L139.408 111.63C141.049 109.169 142.774 101.577 142.003 100.125C141.62 99.4043 139.032 98.5387 128.682 95.6678C124.063 94.3755 115.887 91.9385 110.522 90.1774L100.769 87.0368L100.026 88.1193C98.6283 90.19 97.0216 96.8296 97.6407 97.9946C97.7586 98.2165 104.787 101.714 107.332 102.804L108.818 103.425L107.393 103.376C104.781 103.27 94.0977 102.035 90.6515 101.448C82.5346 100.058 73.0896 97.4534 66.4208 94.7844C56.543 90.8209 47.7307 85.4021 41.1752 79.2465C33.4145 71.9765 26.6017 64.2265 20.6914 56.0206C17.9698 52.2264 11.4944 40.0407 10.0155 35.9299C7.48731 28.8435 5.00707 17.8428 4.06392 9.45174C3.81188 7.08398 3.84339 6.40326 4.44945 4.14864C5.17625 1.40302 5.12382 -0.240882 4.28847 0.0370266C2.98914 0.44292 0.885543 5.99504 0.554805 9.9648C0.259749 13.1094 0.525378 16.1339 1.58934 22.3147C2.96052 30.3361 4.72992 36.9957 7.28279 43.8675C8.5138 47.1852 13.3955 56.8506 15.3234 59.7387L15.2873 59.7579Z" fill="black"/>
</svg>
