<svg width="172" height="119" viewBox="0 0 172 119" fill="none" xmlns="http://www.w3.org/2000/svg">
<path fill-rule="evenodd" clip-rule="evenodd" d="M25.2119 55.2939C30.6927 49.1754 43.9965 38.0658 52.9028 32.1611C57.0987 29.3571 64.0903 25.5663 67.9699 23.9691C76.9353 20.2838 92.2047 17.0248 104.653 16.1171C117.33 15.2051 131.581 15.7746 146.597 17.7603L151.885 18.4582L150.367 17.5084C149.528 16.9891 147.092 15.4755 144.967 14.149L141.086 11.7393L140.51 10.1611C139.416 7.17584 139.148 1.11429 140.09 0.715524C140.483 0.545148 142.201 1.22487 143.25 1.97218C143.731 2.32828 144.816 2.8568 145.652 3.11443C146.735 3.45468 147.292 3.76573 147.547 4.19953C147.792 4.55317 149.645 5.92381 152.324 7.66018C160.027 12.6941 162.929 14.4516 165.892 15.8796L168.76 17.2657L169.514 18.8314C170.907 21.7927 171.553 30.3822 170.472 31.8444C169.935 32.5709 166.961 33.0949 155.167 34.5438C149.901 35.2025 140.556 36.5321 134.397 37.5818L123.211 39.4234L122.575 38.1173C121.384 35.6229 120.712 28.0948 121.58 26.9213C121.745 26.6977 130.008 24.0198 132.971 23.2434L134.699 22.8069L133.132 22.6273C130.256 22.316 118.364 21.9205 114.497 21.9997C105.388 22.1929 94.6266 23.4985 86.8928 25.3284C75.4359 28.05 64.9068 32.5384 56.7268 38.2022C47.0458 44.8882 38.3235 52.2544 30.5142 60.2671C26.9156 63.9739 17.8371 76.2491 15.5465 80.5054C11.6212 87.8463 7.10818 99.4782 4.70391 108.506C4.0409 111.056 3.96405 111.806 4.25853 114.372C4.60481 117.495 4.2786 119.285 3.40997 118.845C2.05456 118.188 0.660679 111.769 0.947976 107.371C1.13936 103.881 1.92464 100.615 4.09967 94.0258C6.91186 85.4728 9.93712 78.4748 13.8544 71.3729C15.744 67.9438 22.6664 58.1658 25.2483 55.3208L25.2119 55.2939Z" fill="black"/>
</svg>
