<svg width="396" height="476" viewBox="0 0 396 476" fill="none" xmlns="http://www.w3.org/2000/svg">
<path d="M228.325 221.332C227.778 220.22 227.617 218.958 227.869 217.745C228.03 215.42 228.996 213.225 230.603 211.537C228.855 211.422 227.165 210.865 225.691 209.919C224.217 208.973 223.007 207.668 222.174 206.128C222.211 209.964 220.901 213.692 218.473 216.662C220.358 216.665 222.219 217.085 223.923 217.892C225.626 218.699 227.129 219.874 228.325 221.332Z" fill="#FDB849"/>
<path d="M175.135 175.32C165.17 183.235 160.444 190.752 157.934 203.394C156.359 211.689 155.634 220.122 155.77 228.564C156.036 240.466 156.93 252.347 158.446 264.155C159.072 269.451 159.244 274.804 160.382 279.987C160.724 281.466 161.752 283.289 163.172 282.834C164.653 278.051 163.742 272.981 162.774 268.085C161.407 260.665 160.72 253.136 160.724 245.591C160.724 236.195 159.585 231.013 159.87 223.439C162.945 242.06 164.825 261.479 176.157 276.57C177.527 278.331 179.63 280.271 181.68 279.36C175.131 265.921 169.893 255.841 166.476 237.504C171.259 247.698 172.91 254.987 178.548 262.789C180.94 266.091 183.389 269.451 186.805 271.729C191.992 275.202 198.536 275.658 204.8 276C206.513 276.191 208.245 276.095 209.925 275.715C211.113 275.295 212.273 274.8 213.399 274.234C214.287 273.938 215.145 273.556 215.961 273.096C216.896 272.427 217.706 271.599 218.353 270.649C223.08 263.93 224.276 255.274 223.876 247.074C223.477 238.873 221.599 230.787 220.859 222.587C219.776 210.685 221.029 198.726 220.802 186.764C220.744 183.062 220.461 179.247 218.752 175.998C217.043 172.748 213.512 170.132 209.868 170.645C211.121 169.96 210.495 167.854 209.183 167.341C207.872 166.828 206.393 167.341 205.083 167.911C205.482 166.829 203.887 166.149 202.748 166.149C192.759 165.927 183.001 169.166 175.129 175.318" fill="black"/>
<path d="M221.777 273.494C228.204 272.571 234.745 272.822 241.082 274.234C242.79 274.576 244.555 275.032 246.15 274.349C247.004 274.007 247.687 273.323 248.542 272.925C251.275 271.615 254.464 273.323 257.482 273.551C258.865 273.631 260.248 273.39 261.522 272.847C262.797 272.303 263.928 271.472 264.828 270.419C265.405 269.57 266.094 268.804 266.878 268.141C267.914 267.541 269.098 267.245 270.295 267.287C275.021 266.889 280.317 266.034 283.165 262.276C284.326 260.607 285.104 258.702 285.442 256.697C286.47 252.34 286.071 247.768 284.304 243.656C282.425 239.669 278.609 236.424 274.167 235.911C269.327 237.281 266.764 243.599 261.81 244.339C259.019 244.738 255.945 243.257 253.382 244.453C252.011 245.08 251.047 246.333 249.681 246.9C245.523 248.723 240.626 243.655 236.526 245.477C234.932 246.217 233.849 247.811 232.198 248.438C230.889 248.951 229.408 248.723 228.041 248.779C226.675 248.836 225.08 249.52 224.681 250.887C222.973 257.264 223.429 263.301 222.289 269.793C222.062 271.217 222.062 271.957 221.777 273.494Z" fill="#14D29B"/>
<path d="M190.343 330.839C184.99 321.328 179.576 311.99 174.226 302.479C170.584 296.552 167.459 290.322 164.886 283.858C162.608 277.424 161.184 270.192 162.209 263.358C163.462 255.5 170.92 252.994 176.901 248.894C183.75 244.145 188.663 237.091 190.741 229.02C191.766 225.09 192.165 220.933 194.044 217.46C194.279 216.851 194.723 216.347 195.296 216.036C196.143 215.681 197.079 215.602 197.973 215.808C202.528 217.06 204.181 222.414 204.579 227.198C204.977 231.981 204.579 237.106 207.711 240.636C210.615 243.939 215.345 244.964 219.1 247.071C224.453 249.975 225.706 257.208 226.162 262.788C227.187 274.349 225.136 286.193 225.934 297.753C226.332 305.611 228.211 313.3 229.862 320.93" fill="#C54016"/>
<path d="M197.909 234.771C199.503 235.739 201.553 236.763 203.375 235.739C204.082 235.334 204.702 234.792 205.197 234.144C204.913 231.867 204.856 229.475 204.685 227.14C204.286 222.356 202.635 217.003 198.079 215.75C197.19 215.482 196.233 215.564 195.403 215.978C194.841 216.304 194.401 216.804 194.15 217.402C192.556 220.42 192.043 223.837 191.246 227.254C193.011 230.157 194.947 232.948 197.909 234.771Z" fill="black"/>
<path d="M213.403 244.452C210.101 247.339 206.351 249.666 202.299 251.343C203.037 252.526 203.721 253.742 204.348 254.987L205.544 254.475C209.673 252.262 213.36 249.309 216.421 245.764C215.395 245.306 214.427 244.908 213.403 244.452ZM197.059 252.709C192.877 253.212 188.647 253.174 184.474 252.596C180.773 252.253 177.071 252.083 173.54 251C172.744 251.456 172.003 251.912 171.206 252.424C174.67 253.838 178.31 254.777 182.025 255.214C186.866 255.899 192.107 256.808 197.173 256.524C196.992 255.26 196.954 253.981 197.059 252.709Z" fill="#962727"/>
<path d="M221.487 195.535C219.608 187.901 215.508 178.337 209.3 172.984C198.993 164.329 178.78 176.227 174.564 185.741V185.797C173.593 190.172 173.769 194.724 175.076 199.011C177.215 206.196 180.4 213.027 184.529 219.284C187.238 223.286 190.951 226.506 195.295 228.622C203.097 232.381 213.348 230.9 218.929 224.067C221.889 220.479 222.972 215.924 223.142 211.311C223.298 206.002 222.741 200.696 221.487 195.535Z" fill="#C54016"/>
<path d="M181.511 213.132C180.086 207.323 179.118 201.289 180.2 195.364C181.111 190.411 183.675 185.343 188.287 182.894C190.479 181.778 192.89 181.156 195.348 181.071C197.17 180.958 199.505 181.356 200.986 179.989C201.726 179.304 202.124 178.281 202.865 177.542C203.442 176.955 204.116 176.473 204.858 176.118C206.492 175.354 208.305 175.058 210.097 175.263C210.714 175.322 211.323 175.437 211.919 175.606C211.122 174.637 210.268 172.929 209.356 172.131C199.049 163.476 178.15 174.751 173.994 184.261L173.424 185.457C172.473 190.198 172.668 195.097 173.994 199.747C174.962 203.278 177.524 205.898 179.005 209.258C179.745 210.909 180.428 212.56 181.226 214.211C181.24 213.835 181.337 213.466 181.511 213.132Z" fill="black"/>
<path d="M189.431 204.646C189.856 203.405 190.56 202.278 191.488 201.35C192.415 200.422 193.543 199.719 194.784 199.293C196.036 198.886 197.368 198.787 198.667 199.006C199.966 199.224 201.193 199.752 202.244 200.546C202.244 200.546 200.991 202.596 196.891 204.077C194.493 204.898 191.925 205.095 189.431 204.646ZM208.28 198.61C208.705 197.369 209.409 196.242 210.337 195.314C211.264 194.386 212.392 193.683 213.633 193.257C214.883 192.834 216.219 192.726 217.52 192.945C218.822 193.164 220.049 193.701 221.093 194.51C221.093 194.51 219.84 196.56 215.74 198.04C213.349 198.896 210.773 199.093 208.28 198.61Z" fill="white"/>
<path d="M195.237 199.123C195.664 200.835 195.837 202.6 195.75 204.362C196.137 204.276 196.518 204.163 196.889 204.024C201.046 202.6 202.242 200.494 202.242 200.494C201.257 199.745 200.114 199.232 198.899 198.994C197.685 198.757 196.432 198.801 195.237 199.123ZM213.688 193.258C213.795 193.646 213.928 194.026 214.086 194.396C214.353 195.246 214.507 196.127 214.542 197.017C214.59 197.472 214.609 197.929 214.599 198.387C214.998 198.273 215.339 198.159 215.795 198.045C219.952 196.621 221.148 194.515 221.148 194.515C220.104 193.707 218.877 193.17 217.576 192.951C216.274 192.732 214.939 192.837 213.688 193.258Z" fill="black"/>
<path d="M205.145 195.704C205.434 197.543 206.337 199.229 207.708 200.488C208.525 201.136 209.507 201.544 210.543 201.665C211.579 201.786 212.628 201.616 213.573 201.174C212.84 202.382 211.772 203.351 210.498 203.964C209.225 204.581 207.888 205.059 206.511 205.387C205.32 202.307 204.853 198.994 205.145 195.704ZM188.403 205.386C192.404 201.89 197.621 200.11 202.924 200.433C201.585 199.233 199.989 198.356 198.259 197.869C196.825 197.648 195.357 197.867 194.05 198.496C192.64 199.13 191.397 200.083 190.418 201.278C189.438 202.473 188.749 203.88 188.403 205.386Z" fill="#962727"/>
<path d="M207.99 198.895C211.724 195.858 216.452 194.316 221.257 194.567C220.24 193.519 218.933 192.797 217.504 192.492C216.075 192.188 214.588 192.315 213.232 192.858C211.93 193.357 210.771 194.169 209.857 195.222C208.943 196.274 208.302 197.536 207.99 198.895Z" fill="#962727"/>
<path d="M190.851 194.852C192.306 194.501 193.82 194.462 195.292 194.738C196.788 194.961 198.316 194.804 199.735 194.283C200.012 194.188 200.264 194.031 200.471 193.824C200.678 193.616 200.835 193.364 200.93 193.087C201.158 192.119 200.245 191.264 199.335 190.923C197.478 190.295 195.457 190.356 193.641 191.094C192.013 191.633 190.527 192.532 189.294 193.726C188.062 194.919 187.115 196.374 186.523 197.984C187.666 196.579 189.158 195.499 190.851 194.852ZM216.192 186.481C214.4 185.77 212.405 185.77 210.613 186.481C209.916 186.8 209.296 187.265 208.795 187.845C208.293 188.424 207.923 189.105 207.709 189.841C207.607 190.101 207.569 190.382 207.599 190.659C207.629 190.937 207.725 191.203 207.88 191.436C208.449 192.005 209.417 191.664 210.101 191.208C211.455 190.212 212.905 189.354 214.428 188.645C215.186 188.316 215.995 188.123 216.82 188.075C217.546 188.054 218.271 188.111 218.984 188.247C218.584 187.336 217.103 186.766 216.192 186.481Z" fill="black"/>
<path d="M215.513 214.271C216.174 214.722 216.736 215.303 217.164 215.979C217.392 216.286 217.534 216.649 217.574 217.03C217.614 217.411 217.551 217.795 217.392 218.143C217.001 218.702 216.41 219.089 215.741 219.225C214.12 219.684 212.389 219.563 210.847 218.883C209.414 218.252 208.146 217.297 207.146 216.093C209.477 214.84 212.723 214.555 215.513 214.271Z" fill="#962727"/>
<path d="M208.558 214.156C209.579 212.657 210.701 211.23 211.918 209.886C212.291 209.393 212.762 208.983 213.301 208.68C213.839 208.377 214.435 208.187 215.05 208.124C215.675 208.166 216.278 208.38 216.79 208.741C217.302 209.103 217.705 209.599 217.955 210.174C218.215 210.602 218.357 211.09 218.367 211.59C218.377 212.09 218.254 212.584 218.011 213.022C217.466 213.695 216.733 214.191 215.904 214.445C214.477 215.034 212.987 215.454 211.462 215.698C210.438 215.869 207.817 216.383 206.906 216.039C207.562 215.512 208.121 214.875 208.558 214.156Z" fill="black"/>
<path d="M213.631 286.648C212.721 279.048 208.853 272.112 202.865 267.343C202.58 267.628 202.58 267.913 202.295 268.255C207.06 272.932 210.076 279.103 210.837 285.737C211.864 285.965 212.606 286.364 213.631 286.648Z" fill="#962727"/>
<path d="M160.953 294.735C162.947 297.753 164.94 300.828 166.933 303.847C168.072 305.608 169.268 307.434 169.325 309.541C169.382 311.42 168.47 313.185 168.357 315.064C168.129 318.481 170.293 321.5 172.286 324.347C175.654 329.205 178.553 334.372 180.942 339.779C189.996 333.002 202.181 333.117 213.457 332.205C224.734 331.294 236.806 329.7 245.006 322.012C246.144 312.673 235.495 304.928 234.414 295.585C233.729 289.72 236.748 284.196 238.742 278.673C239.595 276.281 240.279 273.604 239.538 271.156C239 269.688 238.189 268.336 237.147 267.169C234.384 263.696 231.356 260.44 228.093 257.432C223.199 268.251 217.216 278.558 211.123 288.752C197.224 281.862 181.564 277.647 166.198 275.483C164.717 280.209 162.553 284.709 161.073 289.382C160.384 291.375 160.84 292.628 160.953 294.735Z" fill="#643CFF"/>
<path d="M178.383 319.734C181.515 317.627 184.704 315.634 187.95 313.755C188.879 313.144 189.927 312.736 191.025 312.559C192.021 312.555 193.008 312.749 193.929 313.129L203.84 316.375C204.295 316.546 204.865 316.944 204.637 317.343C204.574 317.44 204.49 317.521 204.391 317.58C204.293 317.639 204.182 317.675 204.067 317.685C202.399 318.139 200.667 318.312 198.942 318.197C199.451 318.262 199.94 318.438 200.373 318.714C200.806 318.989 201.173 319.357 201.448 319.791C202.302 320.874 202.587 322.297 203.327 323.436C203.01 323.658 202.632 323.777 202.245 323.777C201.858 323.777 201.48 323.658 201.163 323.436C200.993 323.949 199.793 324.347 199.284 324.234C198.759 324.069 198.275 323.798 197.861 323.436C196.038 321.955 194.444 322.066 192.223 321.5C192.735 321.899 193.248 322.24 193.817 322.638C194.791 323.273 195.673 324.04 196.436 324.917C196.676 325.197 196.855 325.524 196.963 325.877C197.071 326.229 197.105 326.6 197.063 326.967C194.925 326.164 192.926 325.031 191.14 323.607C188.578 324.176 186.528 326.397 183.965 326.967C182.971 327.179 181.94 327.151 180.959 326.883C179.978 326.616 179.076 326.117 178.327 325.429C177.617 324.784 177.136 323.925 176.957 322.982C176.962 322.372 177.091 321.77 177.336 321.212C177.581 320.653 177.937 320.151 178.383 319.734Z" fill="#C54016"/>
<path d="M160.443 272.93C158.279 271.905 156 274.41 155.549 276.803C155.151 279.194 155.606 281.756 154.473 283.863C153.339 285.971 150.998 286.995 148.948 288.135C146.898 289.33 144.792 291.152 144.905 293.544C144.962 294.399 145.304 295.252 145.304 296.107C145.361 298.157 143.482 299.752 141.66 300.776C139.837 301.801 137.787 302.599 136.705 304.364C134.997 307.154 136.648 310.856 138.926 313.19C143.88 318.201 151.454 319.796 156.579 324.637C158.288 326.231 159.768 328.281 161.989 329.078C165.007 330.155 168.537 328.622 171.556 329.764C172.98 330.469 174.334 331.308 175.599 332.269C176.97 333.124 178.675 333.639 180.102 332.896C186.707 329.365 187.903 320.652 187.619 313.192C183.575 310.003 177.938 308.067 172.87 308.69C172.243 308.747 171.499 308.861 171.047 308.462C170.362 307.892 170.592 306.811 170.477 305.899C170.348 305.222 170.035 304.593 169.573 304.081C169.112 303.57 168.518 303.194 167.858 302.995C166.546 302.616 165.179 302.462 163.815 302.539C163.36 299.75 168.883 298.952 168.598 296.162C168.541 295.592 168.257 295.023 168.485 294.51C168.656 294.054 169.225 293.825 169.681 293.656C177.021 290.695 180.153 285.569 179.134 277.769C172.117 274.462 167.902 270.476 160.443 272.93Z" fill="#14D29B"/>
<path d="M177.127 207.547C175.191 207.547 173.197 208.744 172.856 210.623C172.759 211.371 172.837 212.131 173.084 212.844C174.104 215.324 176.013 217.334 178.437 218.481C179.958 219.462 181.757 219.921 183.562 219.791C185.323 219.506 187.035 217.968 186.865 216.147C186.761 215.393 186.488 214.673 186.067 214.04C184.302 211.195 180.828 207.607 177.127 207.547Z" fill="#C54016"/>
<path d="M175.651 211.252C176.199 211.484 176.732 211.75 177.246 212.05C178.029 212.438 178.711 213.003 179.239 213.701C179.671 214.397 179.833 215.228 179.695 216.035C179.638 216.492 179.58 216.89 179.523 217.345C181.056 216.442 182.765 215.879 184.535 215.694C182.084 213.359 179.066 211.48 175.651 211.252Z" fill="#962727"/>
<path d="M222.453 264.496C222.168 258.745 221.713 253.222 220.972 247.526C220.444 246.968 219.741 246.607 218.979 246.502C219.236 253.153 219.007 259.815 218.294 266.433C216.104 267.856 214.062 269.495 212.2 271.327C210.367 273.103 209.1 275.382 208.557 277.876C202.934 273.578 196.146 271.077 189.079 270.701C185.549 262.102 181.79 253.902 177.628 245.531C177.074 246.38 176.403 247.147 175.635 247.808C180.472 256.407 184.334 265.519 187.147 274.975C188.517 279.645 191.361 283.63 195.745 285.681C199.043 287.308 202.749 287.921 206.394 287.443C208.209 287.179 209.944 286.523 211.478 285.52C213.012 284.517 214.309 283.191 215.278 281.635C216.302 279.812 216.815 277.763 217.783 275.883C218.695 274.004 220.061 272.352 221.143 270.53C222.176 268.696 222.632 266.594 222.453 264.496Z" fill="#FFD340"/>
<path d="M228.38 330.154C226.159 326.111 221.546 309.768 221.603 305.213C221.603 302.194 222.627 299.233 222.685 296.158C222.742 290.579 219.496 285.111 220.578 279.644C221.546 274.918 225.472 271.444 227.924 267.286C230.316 263.243 233.503 257.605 230.999 253.62C228.975 250.45 225.852 248.138 222.229 247.128C223.197 253.733 219.439 259.997 215.795 265.635C212.207 271.273 208.278 277.822 209.303 284.427C205.831 279.435 200.774 275.762 194.952 274.006C189.087 272.244 182.766 272.581 176.729 271.67C170.693 270.702 164.259 267.969 161.696 262.389C158.117 266.476 154.915 270.879 152.129 275.543C154.863 279.529 160.785 280.953 165.568 280.611C170.352 280.27 175.591 279.529 179.634 282.149C182.253 283.8 183.961 286.651 186.695 288.128C189.714 289.836 193.472 289.551 196.831 290.349C202.469 291.719 207.025 296.157 209.815 301.283C212.606 306.409 217.156 326.111 218.186 331.806C221.611 331.439 225.014 330.888 228.38 330.154Z" fill="#9778FF"/>
<path d="M202.697 252.879C202.473 253.576 202.053 254.194 201.488 254.658C200.922 255.123 200.235 255.415 199.508 255.499C198.777 255.562 198.043 255.42 197.389 255.088C196.735 254.756 196.187 254.247 195.806 253.62C195.446 252.982 195.267 252.258 195.287 251.526C195.307 250.794 195.526 250.081 195.92 249.463C196.333 248.862 196.899 248.382 197.56 248.072C198.221 247.763 198.952 247.635 199.678 247.701C200.234 247.74 200.765 247.945 201.202 248.291C201.638 248.636 201.96 249.106 202.125 249.637C201.78 249.524 201.417 249.481 201.055 249.511C200.693 249.54 200.341 249.642 200.019 249.809C199.704 249.977 199.428 250.212 199.212 250.497C198.996 250.782 198.844 251.111 198.766 251.46C198.688 251.783 198.683 252.12 198.752 252.445C198.821 252.77 198.962 253.076 199.165 253.339C199.379 253.604 199.663 253.804 199.986 253.914C200.308 254.025 200.655 254.043 200.987 253.966C201.214 253.909 201.385 253.794 201.613 253.738C202.127 253.506 202.242 253.222 202.697 252.879Z" fill="#FDB849"/>
<path d="M186.809 161.482C186.988 160.978 187.14 160.465 187.265 159.944C187.769 159.023 188.047 157.996 188.077 156.946C188.106 155.897 187.887 154.856 187.436 153.907C187.25 152.909 186.904 151.948 186.411 151.06C186.035 150.284 185.513 149.588 184.873 149.011C184.215 148.481 183.459 148.087 182.647 147.852C181.836 147.616 180.986 147.545 180.147 147.64L179.122 147.811C178.829 147.003 178.292 146.306 177.584 145.818C176.737 145.26 175.727 145.002 174.716 145.085C173.706 145.167 172.751 145.586 172.005 146.273C171.473 145.324 170.612 144.603 169.583 144.246C168.555 143.889 167.432 143.922 166.426 144.337C165.428 144.797 164.547 145.476 163.847 146.323C163.147 147.17 162.647 148.164 162.383 149.231C161.871 151.354 161.698 153.545 161.87 155.722C161.374 155.448 160.818 155.3 160.252 155.292C159.685 155.283 159.125 155.414 158.621 155.673C157.71 156.3 157.71 158.12 158.849 158.292C156.343 159.773 153.78 161.311 152.413 163.871C151.043 166.377 151.502 170.192 154.121 171.388C154.293 171.445 154.406 171.502 154.577 171.56C152.527 176.115 154.236 181.641 158.336 181.468C159.392 181.416 160.414 181.082 161.297 180.5C161.976 181.188 162.796 181.723 163.7 182.067C164.605 182.41 165.573 182.555 166.538 182.491C168.625 182.302 170.646 181.661 172.461 180.612C178.039 177.765 182.141 173.438 186.81 169.394C188.18 168.255 190.853 166.604 190.911 164.554C190.919 164.054 190.808 163.559 190.588 163.11C190.368 162.661 190.044 162.271 189.644 161.971C189.244 161.672 188.778 161.471 188.285 161.386C187.793 161.301 187.287 161.334 186.809 161.482ZM155.719 176.227C155.418 174.7 155.456 173.125 155.832 171.614C157.463 171.507 159.053 171.061 160.502 170.305C159.948 170.574 159.483 170.996 159.16 171.52C158.837 172.044 158.671 172.65 158.679 173.266C158.72 173.52 158.817 173.762 158.964 173.973C159.112 174.185 159.305 174.36 159.529 174.486C159.754 174.612 160.004 174.685 160.261 174.701C160.518 174.716 160.776 174.673 161.014 174.575C160.552 175.105 160.231 175.743 160.082 176.43C159.933 177.117 159.96 177.831 160.16 178.505C158.229 179.078 156.287 178.794 155.719 176.227ZM179.405 149.007C180.543 149.059 181.646 149.414 182.601 150.035L183.286 150.721C181.877 150.365 180.389 150.506 179.072 151.12C179.358 150.456 179.473 149.731 179.408 149.011L179.405 149.007ZM207.311 281.865L199.337 295.874L208.848 299.405L209.018 298.209C209.246 296.671 211.296 283.517 211.296 283.517L207.311 281.865ZM207.197 296.728C205.659 296.158 204.065 295.589 202.303 294.906C202.53 294.507 203.673 292.459 203.783 292.286C204.068 292.343 207.086 293.198 207.769 293.311C207.596 294.507 207.368 295.646 207.197 296.728Z" fill="black"/>
<path d="M237.374 257.606L233.047 255.159C232.591 236.88 234.015 218.486 235.894 199.637C245.119 196.334 254.287 193.145 263.397 191.778C264.89 192.502 266.336 193.319 267.725 194.225C268.693 209.771 264.65 230.956 262.088 247.412" fill="#D70A32"/>
<path d="M266.422 249.862C257.535 254.816 247.553 257.478 237.379 257.606C236.924 239.326 238.347 220.933 240.227 202.084C249.452 198.781 258.621 195.592 267.73 194.226C269.381 212.22 269.438 230.671 266.42 249.862" fill="#FDB849"/>
<path d="M273.764 255.499C269.835 255.613 265.394 254.303 263.23 251.969C261.351 249.975 258.902 247.185 258.788 243.768C253.85 245.975 248.61 247.434 243.241 248.096C243.346 247.453 243.601 246.844 243.987 246.319C244.374 245.794 244.879 245.369 245.462 245.078C243.496 245.125 241.535 244.856 239.654 244.281C239.414 244.238 239.194 244.118 239.028 243.939C238.686 243.426 239.313 242.858 239.881 242.629L250.648 237.162C253.095 235.909 255.716 234.145 258.449 234.315C255.431 233.062 252.299 231.752 248.996 231.809C248.004 231.848 247.016 231.943 246.035 232.094C243.162 232.333 240.271 231.965 237.55 231.013C237.265 230.898 236.923 230.784 236.81 230.5C236.411 229.815 237.322 229.077 238.12 228.848C242.326 227.472 246.627 226.406 250.989 225.66C251.981 225.449 252.993 225.354 254.007 225.375C256.797 225.488 259.701 227.083 261.98 228.677C258.392 224.577 254.861 220.477 251.274 216.377C250.248 215.181 249.167 213.701 249.622 212.22C258.506 214.897 265.967 221.788 271.718 228.792C274.707 232.449 277.32 236.398 279.519 240.579C281.281 244.053 283.961 248.437 281.341 252.031C279.63 254.475 276.668 255.385 273.764 255.499Z" fill="#C54016"/>
<path d="M243.412 206.241C243.093 206.724 242.9 207.28 242.851 207.856C242.801 208.433 242.896 209.013 243.127 209.544C243.379 209.988 243.784 210.325 244.265 210.492C244.747 210.66 245.274 210.646 245.746 210.455C246.061 210.326 246.366 210.174 246.658 209.999C247.469 209.477 248.104 208.723 248.48 207.835C248.685 207.441 248.797 207.005 248.807 206.561C248.817 206.116 248.724 205.676 248.537 205.273C247.512 203.507 244.722 204.024 243.412 206.241Z" fill="white"/>
<path d="M244.721 206.868C244.58 207.085 244.495 207.335 244.475 207.594C244.455 207.852 244.5 208.112 244.607 208.349C244.724 208.549 244.91 208.699 245.13 208.773C245.35 208.846 245.589 208.837 245.803 208.747C245.947 208.693 246.082 208.616 246.202 208.519C246.572 208.283 246.867 207.947 247.056 207.551C247.141 207.373 247.185 207.179 247.185 206.982C247.185 206.785 247.141 206.59 247.056 206.413C246.6 205.615 245.291 205.9 244.721 206.868Z" fill="black"/>
<path d="M242.958 213.36C242.639 213.843 242.446 214.399 242.397 214.975C242.347 215.552 242.442 216.132 242.673 216.663C242.925 217.106 243.329 217.444 243.811 217.611C244.293 217.779 244.82 217.766 245.293 217.574C245.608 217.445 245.912 217.293 246.204 217.119C247.015 216.596 247.649 215.842 248.026 214.955C248.231 214.56 248.343 214.124 248.353 213.68C248.363 213.236 248.271 212.795 248.083 212.392C247.002 210.626 244.21 211.139 242.958 213.36ZM243.698 220.307C243.535 220.547 243.434 220.823 243.404 221.111C243.374 221.4 243.417 221.691 243.527 221.959C243.651 222.182 243.853 222.352 244.095 222.436C244.337 222.52 244.601 222.512 244.837 222.414C244.999 222.361 245.153 222.285 245.293 222.187C245.698 221.926 246.016 221.548 246.203 221.104C246.302 220.91 246.354 220.695 246.354 220.478C246.354 220.26 246.302 220.045 246.203 219.851C245.691 218.94 244.325 219.225 243.698 220.307Z" fill="white"/>
<path d="M244.211 213.986C244.07 214.203 243.985 214.453 243.965 214.711C243.946 214.97 243.991 215.229 244.098 215.466C244.215 215.666 244.401 215.817 244.621 215.89C244.841 215.964 245.08 215.955 245.294 215.865C245.438 215.811 245.572 215.734 245.692 215.637C246.062 215.4 246.357 215.065 246.547 214.669C246.631 214.491 246.675 214.297 246.675 214.1C246.675 213.902 246.631 213.708 246.547 213.53C246.09 212.735 244.838 212.96 244.211 213.986Z" fill="black"/>
<path d="M188.003 230.898C187.456 229.786 187.295 228.524 187.548 227.311C187.709 224.987 188.675 222.791 190.281 221.103C188.534 220.988 186.844 220.431 185.37 219.485C183.896 218.539 182.686 217.235 181.853 215.694C181.889 219.531 180.58 223.259 178.151 226.229C180.038 226.219 181.904 226.633 183.609 227.441C185.314 228.249 186.816 229.431 188.003 230.898Z" fill="#FDB849"/>
<path d="M198.086 245.477V248.381H200.08V245.192C203.072 244.606 205.882 243.318 208.28 241.434C207.824 241.434 208.45 241.434 208.28 241.035C207.539 239.498 206.909 237.675 206.229 236.081C203.594 238.281 200.263 239.472 196.83 239.441C193.398 239.409 190.089 238.158 187.495 235.909C186.583 237.505 185.387 239.383 184.476 240.921C187.729 243.793 191.87 245.462 196.206 245.647C196.826 245.537 197.455 245.48 198.086 245.477ZM215.34 297.981C214.771 296.158 214.202 294.279 213.633 292.457L213.576 292.23C212.855 289.483 211.823 286.827 210.5 284.313H210.557C209.646 280.328 210.671 275.715 213.576 270.709C214.771 268.659 216.138 266.665 217.448 264.729C219.002 262.583 220.446 260.359 221.776 258.067L220.014 257.099C218.761 259.32 217.28 261.484 215.8 263.591C214.43 265.527 213.01 267.576 211.814 269.684C209.422 273.841 208.226 277.713 208.227 281.301C201.051 273.442 190.858 272.246 181.006 271.107C179.469 270.937 177.818 270.765 176.28 270.538C174.229 270.253 171.667 269.912 169.959 268.483L168.649 270.02C170.813 271.843 173.661 272.241 175.995 272.526C177.589 272.754 179.184 272.924 180.778 273.096C190.516 274.234 200.595 275.373 207.316 283.232C209.536 285.909 210.618 289.382 211.643 292.742L211.7 292.97C212.269 294.849 212.839 296.671 213.408 298.549C214.094 300.655 214.718 302.757 215.344 304.869C218.021 313.639 220.47 322.636 222.691 331.577L224.627 331.064C222.406 322.124 219.957 313.126 217.28 304.3C216.65 302.194 215.967 300.03 215.34 297.981ZM230.546 185.343L228.951 186.538C231.855 190.411 233.278 192.117 236.468 195.82L238.005 194.511C234.816 190.866 233.393 189.158 230.546 185.343ZM226.733 194.316L227.853 192.667L233.507 196.503L232.389 198.153L226.733 194.316ZM223.551 200.559L223.901 198.597L233.656 200.335L233.307 202.297L223.551 200.559Z" fill="black"/>
<path fill-rule="evenodd" clip-rule="evenodd" d="M330.036 236.962C320.084 252.98 294.434 283.403 276.651 300.303C268.282 308.316 253.986 319.674 245.851 324.832C227.05 336.738 193.826 350.194 166.042 357.209C137.745 364.325 105.297 368.719 70.554 370.216L58.3198 370.746L62.1307 372.288C64.2337 373.128 70.3453 375.579 75.6783 377.731L85.4149 381.632L87.3452 384.971C91.0106 391.284 94.0313 404.882 92.0618 406.159C91.2411 406.701 87.0863 405.849 84.4156 404.577C83.185 403.964 80.5217 403.202 78.5303 402.952C75.9449 402.615 74.5617 402.134 73.8114 401.255C73.1178 400.553 68.3812 398.193 61.6319 395.335C42.2095 387.024 34.9469 384.207 27.6778 382.16L20.6414 380.17L18.3138 376.93C13.9824 370.79 9.09693 351.627 10.959 347.89C11.8842 346.034 18.398 343.663 44.4874 335.685C56.1297 332.097 76.729 325.365 90.2355 320.537L114.791 311.913L116.75 314.613C120.437 319.778 124.959 336.53 123.464 339.53C123.179 340.101 105.566 349.45 99.1753 352.387L95.4421 354.062L99.058 353.843C105.684 353.401 132.729 349.554 141.441 347.833C161.959 343.765 185.769 336.523 202.525 329.302C227.344 318.581 249.36 304.236 265.597 288.169C284.819 269.193 301.604 249.061 316.066 227.831C322.724 218.016 338.356 186.643 341.838 176.106C347.787 157.944 353.353 129.846 355.19 108.476C355.673 102.447 355.548 100.721 353.859 95.036C351.831 88.1125 351.854 83.9348 353.994 84.5849C357.32 85.5292 363.031 99.4875 364.135 109.546C365.093 117.511 364.62 125.208 362.329 140.974C359.381 161.433 355.331 178.461 349.305 196.08C346.4 204.586 334.647 229.454 329.944 236.915L330.036 236.962Z" fill="black"/>
</svg>
