<svg width="224" height="37" viewBox="0 0 224 37" fill="none" xmlns="http://www.w3.org/2000/svg">
<path d="M5.16236 9.49177C6.0148 8.84619 7.05546 8.49798 8.12477 8.50055C8.49407 8.49227 8.8595 8.57727 9.18723 8.74769C9.51496 8.91811 9.79441 9.16845 9.99972 9.47553C10.205 9.16845 10.4845 8.91811 10.8122 8.74769C11.1399 8.57727 11.5054 8.49227 11.8747 8.50055C12.944 8.49798 13.9846 8.84619 14.8371 9.49177C15.4933 10.0018 15.9996 10.708 16.1783 11.5617C16.5883 11.593 16.9633 11.763 17.2783 12.0192C17.7558 12.4067 18.1033 12.9879 18.322 13.6029C18.6645 14.5591 18.757 15.7779 18.402 16.8153C18.492 16.8578 18.5807 16.9078 18.667 16.9653C19.0107 17.1941 19.272 17.5216 19.4645 17.9078C19.8432 18.664 19.9994 19.719 19.9994 21.0002C19.9994 22.4264 19.4557 23.3839 18.7657 23.9751C18.3842 24.3023 17.9339 24.5394 17.4483 24.6689C17.3233 25.3663 16.9733 26.1738 16.4245 26.8588C15.7121 27.7525 14.6071 28.5 13.1246 28.5C11.9497 28.5 11.0147 27.85 10.4072 27.2125C10.262 27.0603 10.1259 26.8996 9.99972 26.7313C9.87355 26.8996 9.73748 27.0603 9.59223 27.2125C8.98475 27.85 8.05103 28.5 6.87481 28.5C5.39235 28.5 4.28863 27.7525 3.5749 26.8588C3.06212 26.222 2.7109 25.4707 2.55118 24.6689C2.06554 24.5394 1.61527 24.3023 1.23372 23.9751C0.543735 23.3839 0 22.4252 0 21.0002C0 19.719 0.157496 18.6628 0.534985 17.9078C0.713892 17.529 0.988829 17.2037 1.33246 16.9641C1.41688 16.9082 1.50548 16.8589 1.59746 16.8166C1.24247 15.7766 1.33496 14.5591 1.67745 13.6029C1.8962 12.9879 2.24369 12.4067 2.72117 12.0192C3.03617 11.763 3.41116 11.5942 3.82114 11.5617C4.00114 10.708 4.50613 10.0018 5.16236 9.49177ZM9.37474 11.6255V11.613L9.37224 11.5505C9.35384 11.2246 9.28902 10.903 9.17975 10.5955C9.10195 10.3633 8.96948 10.1533 8.79351 9.98301C8.60888 9.82224 8.36932 9.73895 8.12477 9.75052C7.33348 9.7478 6.56287 10.0032 5.92984 10.478C5.34985 10.9292 4.99986 11.5405 4.99986 12.2504C4.99979 12.3494 4.97621 12.447 4.93106 12.535C4.88591 12.6231 4.82049 12.6992 4.74018 12.7571C4.65987 12.8149 4.56697 12.8529 4.46913 12.8678C4.37128 12.8827 4.27129 12.8742 4.17738 12.8429C3.94239 12.7654 3.7324 12.8092 3.50865 12.9892C3.26366 13.1892 3.02492 13.5442 2.85367 14.0229C2.50493 15.0004 2.54118 16.1841 3.01992 16.9041C3.08829 17.0066 3.12482 17.1271 3.12491 17.2503H4.06239C4.80829 17.2503 5.52364 17.5466 6.05107 18.074C6.5785 18.6015 6.87481 19.3168 6.87481 20.0627V20.4815C7.29181 20.6289 7.64326 20.919 7.86705 21.3005C8.09084 21.682 8.17257 22.1303 8.09777 22.5662C8.02298 23.0022 7.79649 23.3976 7.45833 23.6827C7.12017 23.9678 6.69212 24.1241 6.24983 24.1241C5.80754 24.1241 5.37948 23.9678 5.04132 23.6827C4.70316 23.3976 4.47667 23.0022 4.40188 22.5662C4.32709 22.1303 4.40881 21.682 4.6326 21.3005C4.85639 20.919 5.20785 20.6289 5.62484 20.4815V20.0627C5.62484 19.2003 4.92486 18.5003 4.06239 18.5003H1.87495C1.80023 18.5002 1.72613 18.4866 1.6562 18.4603L1.65245 18.4678C1.40496 18.9615 1.24997 19.7815 1.24997 21.0002C1.24997 22.0739 1.6437 22.6789 2.04744 23.0252C2.48118 23.3976 2.96242 23.5001 3.12491 23.5001C3.29067 23.5001 3.44964 23.566 3.56684 23.6832C3.68405 23.8004 3.7499 23.9594 3.7499 24.1251C3.7499 24.5851 3.99989 25.3888 4.54987 26.0788C5.08611 26.7475 5.85734 27.25 6.87481 27.25C7.57479 27.25 8.20227 26.8588 8.68726 26.3501C8.926 26.1001 9.11225 25.8413 9.23349 25.6288C9.28869 25.5346 9.33593 25.4359 9.37474 25.3338V15.3754H8.01853C7.8711 15.7924 7.581 16.1438 7.1995 16.3676C6.818 16.5914 6.36968 16.6731 5.93375 16.5983C5.49783 16.5235 5.10238 16.297 4.8173 15.9589C4.53222 15.6207 4.37586 15.1927 4.37586 14.7504C4.37586 14.3081 4.53222 13.88 4.8173 13.5419C5.10238 13.2037 5.49783 12.9772 5.93375 12.9024C6.36968 12.8276 6.818 12.9094 7.1995 13.1332C7.581 13.3569 7.8711 13.7084 8.01853 14.1254H9.37474V11.6255ZM10.6247 24.1239V25.3326C10.6635 25.4347 10.7108 25.5333 10.766 25.6276C10.8884 25.8401 11.0734 26.0988 11.3109 26.3488C11.7972 26.8575 12.4259 27.2488 13.1246 27.2488C14.1421 27.2488 14.9133 26.7463 15.4496 26.0776C15.9996 25.3876 16.2495 24.5839 16.2495 24.1239C16.2495 23.9581 16.3154 23.7991 16.4326 23.6819C16.5498 23.5647 16.7088 23.4989 16.8745 23.4989C17.037 23.4989 17.5183 23.3964 17.952 23.0239C18.3557 22.6777 18.7495 22.0727 18.7495 20.999C18.7495 19.7802 18.5932 18.9615 18.347 18.4665C18.2646 18.2822 18.1353 18.1227 17.972 18.004C17.8313 17.9141 17.6664 17.8692 17.4995 17.8753C17.3865 17.8752 17.2755 17.8445 17.1786 17.7864C17.0816 17.7283 17.0022 17.645 16.9489 17.5453C16.8955 17.4456 16.8702 17.3334 16.8756 17.2204C16.881 17.1075 16.9169 16.9982 16.9795 16.9041C17.4595 16.1841 17.4945 15.0004 17.1458 14.0229C16.9745 13.5442 16.7358 13.1879 16.4908 12.9892C16.267 12.8092 16.0571 12.7642 15.8221 12.8429C15.7282 12.8742 15.6282 12.8827 15.5303 12.8678C15.4325 12.8529 15.3396 12.8149 15.2593 12.7571C15.179 12.6992 15.1135 12.6231 15.0684 12.535C15.0232 12.447 14.9997 12.3494 14.9996 12.2504C14.9996 11.5405 14.6496 10.9292 14.0684 10.478C13.4357 10.0035 12.6655 9.74808 11.8747 9.75052C11.6301 9.73895 11.3906 9.82224 11.2059 9.98301C11.0294 10.1531 10.8965 10.3632 10.8184 10.5955C10.6994 10.922 10.634 11.2656 10.6247 11.613V22.8752H11.5622C12.4247 22.8752 13.1246 22.1752 13.1246 21.3127V19.019C12.7076 18.8716 12.3562 18.5815 12.1324 18.2C11.9086 17.8185 11.8269 17.3702 11.9017 16.9342C11.9765 16.4983 12.203 16.1029 12.5411 15.8178C12.8793 15.5327 13.3073 15.3763 13.7496 15.3763C14.1919 15.3763 14.62 15.5327 14.9581 15.8178C15.2963 16.1029 15.5228 16.4983 15.5976 16.9342C15.6724 17.3702 15.5906 17.8185 15.3668 18.2C15.1431 18.5815 14.7916 18.8716 14.3746 19.019V21.3127C14.3746 22.0586 14.0783 22.7739 13.5509 23.3014C13.0234 23.8288 12.3081 24.1251 11.5622 24.1251L10.6247 24.1239ZM5.62484 14.7504C5.62484 14.9161 5.69069 15.0751 5.8079 15.1923C5.9251 15.3095 6.08407 15.3754 6.24983 15.3754C6.41558 15.3754 6.57455 15.3095 6.69176 15.1923C6.80896 15.0751 6.87481 14.9161 6.87481 14.7504C6.87481 14.5846 6.80896 14.4257 6.69176 14.3085C6.57455 14.1912 6.41558 14.1254 6.24983 14.1254C6.08407 14.1254 5.9251 14.1912 5.8079 14.3085C5.69069 14.4257 5.62484 14.5846 5.62484 14.7504ZM13.7496 17.8753C13.9154 17.8753 14.0743 17.8094 14.1915 17.6922C14.3088 17.575 14.3746 17.4161 14.3746 17.2503C14.3746 17.0846 14.3088 16.9256 14.1915 16.8084C14.0743 16.6912 13.9154 16.6253 13.7496 16.6253C13.5839 16.6253 13.4249 16.6912 13.3077 16.8084C13.1905 16.9256 13.1246 17.0846 13.1246 17.2503C13.1246 17.4161 13.1905 17.575 13.3077 17.6922C13.4249 17.8094 13.5839 17.8753 13.7496 17.8753ZM6.24983 21.6252C6.08407 21.6252 5.9251 21.691 5.8079 21.8082C5.69069 21.9254 5.62484 22.0844 5.62484 22.2502C5.62484 22.4159 5.69069 22.5749 5.8079 22.6921C5.9251 22.8093 6.08407 22.8752 6.24983 22.8752C6.41558 22.8752 6.57455 22.8093 6.69176 22.6921C6.80896 22.5749 6.87481 22.4159 6.87481 22.2502C6.87481 22.0844 6.80896 21.9254 6.69176 21.8082C6.57455 21.691 6.41558 21.6252 6.24983 21.6252Z" fill="black"/>
<path d="M37.3434 23.752L37.5234 23.284C37.7394 23.284 38.0214 23.326 38.3694 23.41C38.7294 23.494 39.1434 23.608 39.6114 23.752C40.0794 23.908 40.5954 24.094 41.1594 24.31C41.7354 24.526 42.3474 24.766 42.9954 25.03C43.6434 25.294 44.3274 25.582 45.0474 25.894C45.7194 26.182 46.4454 26.392 47.2254 26.524C48.0174 26.668 48.8154 26.716 49.6194 26.668C50.4234 26.62 51.1854 26.458 51.9054 26.182C52.6374 25.918 53.2794 25.528 53.8314 25.012L53.9034 25.102C53.8194 25.33 53.6154 25.606 53.2914 25.93C52.9794 26.266 52.5594 26.584 52.0314 26.884C51.5034 27.196 50.8794 27.436 50.1594 27.604C49.4514 27.784 48.6534 27.838 47.7654 27.766C46.8894 27.694 45.9354 27.436 44.9034 26.992C44.3514 26.752 43.7634 26.47 43.1394 26.146C42.5154 25.822 41.8734 25.498 41.2134 25.174C40.5534 24.85 39.8934 24.556 39.2334 24.292C38.5854 24.04 37.9554 23.86 37.3434 23.752ZM37.5414 10.648C38.8134 10.648 39.9294 10.924 40.8894 11.476C41.8614 12.016 42.6174 12.778 43.1574 13.762C43.7094 14.746 43.9854 15.892 43.9854 17.2C43.9854 18.508 43.7094 19.654 43.1574 20.638C42.6174 21.622 41.8614 22.39 40.8894 22.942C39.9174 23.482 38.8014 23.752 37.5414 23.752C36.2694 23.752 35.1474 23.482 34.1754 22.942C33.2034 22.39 32.4414 21.622 31.8894 20.638C31.3494 19.654 31.0794 18.508 31.0794 17.2C31.0794 15.892 31.3494 14.746 31.8894 13.762C32.4414 12.778 33.2034 12.016 34.1754 11.476C35.1474 10.924 36.2694 10.648 37.5414 10.648ZM37.5414 23.212C38.5614 23.212 39.4494 22.96 40.2054 22.456C40.9734 21.952 41.5674 21.25 41.9874 20.35C42.4194 19.45 42.6354 18.4 42.6354 17.2C42.6354 16 42.4194 14.95 41.9874 14.05C41.5674 13.15 40.9734 12.448 40.2054 11.944C39.4494 11.44 38.5614 11.188 37.5414 11.188C36.5214 11.188 35.6274 11.44 34.8594 11.944C34.0914 12.448 33.4914 13.15 33.0594 14.05C32.6394 14.95 32.4294 16 32.4294 17.2C32.4294 18.4 32.6454 19.45 33.0774 20.35C33.5094 21.25 34.1094 21.952 34.8774 22.456C35.6454 22.96 36.5334 23.212 37.5414 23.212ZM48.0698 12.7V19.504C48.0698 20.668 48.3638 21.586 48.9518 22.258C49.5518 22.93 50.3678 23.266 51.3998 23.266C52.5398 23.266 53.4338 22.948 54.0818 22.312C54.7418 21.676 55.0718 20.806 55.0718 19.702V12.7H55.8998V19.702C55.8998 20.95 55.4978 21.94 54.6938 22.672C53.9018 23.392 52.8098 23.752 51.4178 23.752C50.0378 23.752 48.9398 23.392 48.1238 22.672C47.3198 21.952 46.9178 20.968 46.9178 19.72V12.7H48.0698ZM46.9538 12.7V13.654H46.9178C46.9058 13.438 46.8158 13.258 46.6478 13.114C46.4918 12.958 46.2938 12.88 46.0538 12.88C46.0538 12.88 46.0058 12.88 45.9098 12.88C45.8258 12.88 45.7838 12.88 45.7838 12.88V12.7H46.9538ZM49.2038 12.7V12.88C49.2038 12.88 49.1558 12.88 49.0598 12.88C48.9758 12.88 48.9338 12.88 48.9338 12.88C48.7058 12.88 48.5018 12.958 48.3218 13.114C48.1538 13.258 48.0698 13.438 48.0698 13.654H48.0338V12.7H49.2038ZM55.1078 12.7V13.654H55.0718C55.0718 13.438 54.9878 13.258 54.8198 13.114C54.6518 12.958 54.4478 12.88 54.2078 12.88C54.2078 12.88 54.1598 12.88 54.0638 12.88C53.9798 12.88 53.9378 12.88 53.9378 12.88V12.7H55.1078ZM57.0338 12.7V12.88C57.0338 12.88 56.9858 12.88 56.8898 12.88C56.8058 12.88 56.7638 12.88 56.7638 12.88C56.5358 12.88 56.3378 12.958 56.1698 13.114C56.0018 13.258 55.9118 13.438 55.8998 13.654H55.8638V12.7H57.0338ZM63.0825 12.448L68.0325 23.392H66.6105L62.7765 14.05L63.0825 12.448ZM59.6085 22.186C59.4765 22.546 59.4945 22.828 59.6625 23.032C59.8305 23.224 60.0225 23.32 60.2385 23.32H60.3825V23.5H56.9445V23.32C56.9445 23.32 56.9685 23.32 57.0165 23.32C57.0645 23.32 57.0885 23.32 57.0885 23.32C57.3405 23.32 57.5985 23.236 57.8625 23.068C58.1265 22.888 58.3545 22.594 58.5465 22.186H59.6085ZM63.0825 12.448L63.2085 13.69L59.0865 23.446H57.9525L62.2185 14.302C62.2185 14.302 62.2485 14.23 62.3085 14.086C62.3805 13.942 62.4585 13.768 62.5425 13.564C62.6385 13.348 62.7225 13.138 62.7945 12.934C62.8665 12.73 62.9085 12.568 62.9205 12.448H63.0825ZM65.2065 19.306V19.846H60.4365V19.306H65.2065ZM66.1245 22.186H67.4925C67.6725 22.594 67.8945 22.888 68.1585 23.068C68.4225 23.236 68.6745 23.32 68.9145 23.32C68.9145 23.32 68.9385 23.32 68.9865 23.32C69.0345 23.32 69.0585 23.32 69.0585 23.32V23.5H65.3685V23.32H65.5125C65.7165 23.32 65.9025 23.224 66.0705 23.032C66.2385 22.828 66.2565 22.546 66.1245 22.186ZM70.9141 12.43L80.8861 21.826L81.0661 23.752L71.0941 14.302L70.9141 12.43ZM70.9501 22.384V23.5H69.6001V23.32C69.6001 23.32 69.6481 23.32 69.7441 23.32C69.8521 23.32 69.9061 23.32 69.9061 23.32C70.1821 23.32 70.4161 23.23 70.6081 23.05C70.8001 22.87 70.8961 22.648 70.8961 22.384H70.9501ZM71.7061 22.384C71.7061 22.648 71.8021 22.87 71.9941 23.05C72.1981 23.23 72.4321 23.32 72.6961 23.32C72.6961 23.32 72.7441 23.32 72.8401 23.32C72.9481 23.32 73.0021 23.32 73.0021 23.32V23.5H71.6521V22.384H71.7061ZM70.9141 12.43L71.6881 13.438L71.7061 23.5H70.8961V14.68C70.8961 14.068 70.8661 13.54 70.8061 13.096C70.7581 12.652 70.7341 12.43 70.7341 12.43H70.9141ZM81.0661 12.7V21.448C81.0661 21.832 81.0781 22.204 81.1021 22.564C81.1261 22.912 81.1501 23.2 81.1741 23.428C81.2101 23.644 81.2281 23.752 81.2281 23.752H81.0661L80.2741 22.798V12.7H81.0661ZM81.0121 13.816V12.7H82.3621V12.88C82.3621 12.88 82.3081 12.88 82.2001 12.88C82.1041 12.88 82.0561 12.88 82.0561 12.88C81.7921 12.88 81.5581 12.97 81.3541 13.15C81.1621 13.33 81.0661 13.552 81.0661 13.816H81.0121ZM80.2741 13.816C80.2621 13.552 80.1601 13.33 79.9681 13.15C79.7761 12.97 79.5421 12.88 79.2661 12.88C79.2661 12.88 79.2121 12.88 79.1041 12.88C79.0081 12.88 78.9601 12.88 78.9601 12.88V12.7H80.3101V13.816H80.2741ZM88.7934 12.754V23.5H87.6234V12.754H88.7934ZM93.1494 12.682V13.222H83.2674V12.682H93.1494ZM93.1494 13.186V14.428H92.9514V14.14C92.9514 13.888 92.8674 13.678 92.6994 13.51C92.5434 13.33 92.3274 13.234 92.0514 13.222V13.186H93.1494ZM93.1494 12.394V12.862L91.1334 12.682C91.3734 12.682 91.6254 12.67 91.8894 12.646C92.1654 12.61 92.4174 12.568 92.6454 12.52C92.8734 12.472 93.0414 12.43 93.1494 12.394ZM87.6594 22.348V23.5H86.3454V23.32C86.3574 23.32 86.3934 23.32 86.4534 23.32C86.5254 23.32 86.5614 23.32 86.5614 23.32C86.8494 23.32 87.0954 23.224 87.2994 23.032C87.5034 22.84 87.6114 22.612 87.6234 22.348H87.6594ZM88.7394 22.348H88.7934C88.8054 22.612 88.9134 22.84 89.1174 23.032C89.3214 23.224 89.5674 23.32 89.8554 23.32C89.8554 23.32 89.8854 23.32 89.9454 23.32C90.0174 23.32 90.0534 23.32 90.0534 23.32V23.5H88.7394V22.348ZM84.3654 13.186V13.222C84.0894 13.234 83.8674 13.33 83.6994 13.51C83.5434 13.678 83.4654 13.888 83.4654 14.14V14.428H83.2674V13.186H84.3654ZM83.2674 12.394C83.3754 12.43 83.5374 12.472 83.7534 12.52C83.9814 12.568 84.2334 12.61 84.5094 12.646C84.7854 12.67 85.0434 12.682 85.2834 12.682L83.2674 12.862V12.394ZM96.4097 12.7V19.504C96.4097 20.668 96.7037 21.586 97.2917 22.258C97.8917 22.93 98.7077 23.266 99.7397 23.266C100.88 23.266 101.774 22.948 102.422 22.312C103.082 21.676 103.412 20.806 103.412 19.702V12.7H104.24V19.702C104.24 20.95 103.838 21.94 103.034 22.672C102.242 23.392 101.15 23.752 99.7577 23.752C98.3777 23.752 97.2797 23.392 96.4637 22.672C95.6597 21.952 95.2577 20.968 95.2577 19.72V12.7H96.4097ZM95.2937 12.7V13.654H95.2577C95.2457 13.438 95.1557 13.258 94.9877 13.114C94.8317 12.958 94.6337 12.88 94.3937 12.88C94.3937 12.88 94.3457 12.88 94.2497 12.88C94.1657 12.88 94.1237 12.88 94.1237 12.88V12.7H95.2937ZM97.5437 12.7V12.88C97.5437 12.88 97.4957 12.88 97.3997 12.88C97.3157 12.88 97.2737 12.88 97.2737 12.88C97.0457 12.88 96.8417 12.958 96.6617 13.114C96.4937 13.258 96.4097 13.438 96.4097 13.654H96.3737V12.7H97.5437ZM103.448 12.7V13.654H103.412C103.412 13.438 103.328 13.258 103.16 13.114C102.992 12.958 102.788 12.88 102.548 12.88C102.548 12.88 102.5 12.88 102.404 12.88C102.32 12.88 102.278 12.88 102.278 12.88V12.7H103.448ZM105.374 12.7V12.88C105.374 12.88 105.326 12.88 105.23 12.88C105.146 12.88 105.104 12.88 105.104 12.88C104.876 12.88 104.678 12.958 104.51 13.114C104.342 13.258 104.252 13.438 104.24 13.654H104.204V12.7H105.374ZM118.483 12.448L118.645 13.618L114.433 21.916C114.433 21.916 114.385 22.018 114.289 22.222C114.205 22.426 114.115 22.672 114.019 22.96C113.923 23.236 113.851 23.5 113.803 23.752H113.623L113.371 22.618L118.483 12.448ZM107.935 22.294V23.5H106.063V23.32C106.063 23.32 106.105 23.32 106.189 23.32C106.285 23.32 106.333 23.32 106.333 23.32C106.645 23.32 106.915 23.23 107.143 23.05C107.383 22.87 107.521 22.618 107.557 22.294H107.935ZM108.475 22.564C108.463 22.744 108.505 22.918 108.601 23.086C108.697 23.242 108.877 23.326 109.141 23.338H109.393V23.5H108.367V22.564H108.475ZM108.961 12.448H109.141L109.501 13.51L108.385 23.5H107.395L108.961 12.448ZM109.141 12.448L114.037 21.862L113.623 23.752L108.799 14.428L109.141 12.448ZM118.645 12.448L120.265 23.5H118.897L117.727 14.446L118.483 12.448H118.645ZM119.725 22.294H120.085C120.133 22.618 120.277 22.87 120.517 23.05C120.757 23.23 121.027 23.32 121.327 23.32C121.327 23.32 121.369 23.32 121.453 23.32C121.549 23.32 121.597 23.32 121.597 23.32V23.5H119.725V22.294ZM118.771 22.564H118.897V23.5H117.853V23.338H118.123C118.399 23.326 118.579 23.236 118.663 23.068C118.759 22.9 118.795 22.732 118.771 22.564ZM130.74 10.648C130.932 10.648 131.136 10.66 131.352 10.684C131.58 10.708 131.796 10.744 132 10.792C132.216 10.828 132.408 10.87 132.576 10.918C132.756 10.954 132.894 10.996 132.99 11.044V13.042H132.828C132.828 12.466 132.63 12.016 132.234 11.692C131.838 11.356 131.358 11.188 130.794 11.188C130.134 11.188 129.6 11.398 129.192 11.818C128.784 12.226 128.58 12.706 128.58 13.258C128.58 13.486 128.628 13.756 128.724 14.068C128.832 14.368 129.024 14.65 129.3 14.914L132.846 18.19C133.206 18.526 133.446 18.886 133.566 19.27C133.686 19.654 133.746 20.026 133.746 20.386C133.746 21.382 133.44 22.192 132.828 22.816C132.228 23.44 131.412 23.752 130.38 23.752C130.092 23.752 129.75 23.722 129.354 23.662C128.97 23.602 128.592 23.5 128.22 23.356C127.86 23.2 127.56 23.002 127.32 22.762C127.284 22.57 127.266 22.33 127.266 22.042C127.266 21.754 127.29 21.454 127.338 21.142C127.386 20.818 127.452 20.524 127.536 20.26H127.698C127.638 20.872 127.716 21.406 127.932 21.862C128.148 22.318 128.46 22.666 128.868 22.906C129.288 23.134 129.762 23.236 130.29 23.212C130.95 23.176 131.514 22.948 131.982 22.528C132.462 22.096 132.702 21.52 132.702 20.8C132.702 20.452 132.642 20.14 132.522 19.864C132.402 19.576 132.228 19.33 132 19.126L128.544 15.922C128.184 15.586 127.932 15.22 127.788 14.824C127.644 14.416 127.572 14.038 127.572 13.69C127.572 13.186 127.692 12.7 127.932 12.232C128.172 11.764 128.526 11.386 128.994 11.098C129.474 10.798 130.056 10.648 130.74 10.648ZM132.99 10.828V11.206H131.622V10.828H132.99ZM138.365 12.7V23.5H137.231V12.7H138.365ZM137.285 22.348V23.5H135.755V23.32C135.755 23.32 135.797 23.32 135.881 23.32C135.965 23.32 136.007 23.32 136.007 23.32C136.343 23.32 136.625 23.224 136.853 23.032C137.093 22.84 137.219 22.612 137.231 22.348H137.285ZM138.311 22.348H138.365C138.377 22.612 138.497 22.84 138.725 23.032C138.965 23.224 139.253 23.32 139.589 23.32C139.589 23.32 139.625 23.32 139.697 23.32C139.781 23.32 139.823 23.32 139.823 23.32L139.841 23.5H138.311V22.348ZM138.311 13.852V12.7H139.841L139.823 12.88C139.823 12.88 139.781 12.88 139.697 12.88C139.625 12.88 139.589 12.88 139.589 12.88C139.253 12.88 138.965 12.976 138.725 13.168C138.497 13.348 138.377 13.576 138.365 13.852H138.311ZM137.285 13.852H137.231C137.219 13.576 137.093 13.348 136.853 13.168C136.625 12.976 136.343 12.88 136.007 12.88C135.995 12.88 135.947 12.88 135.863 12.88C135.791 12.88 135.755 12.88 135.755 12.88V12.7H137.285V13.852ZM153.376 12.448L153.538 13.618L149.326 21.916C149.326 21.916 149.278 22.018 149.182 22.222C149.098 22.426 149.008 22.672 148.912 22.96C148.816 23.236 148.744 23.5 148.696 23.752H148.516L148.264 22.618L153.376 12.448ZM142.828 22.294V23.5H140.956V23.32C140.956 23.32 140.998 23.32 141.082 23.32C141.178 23.32 141.226 23.32 141.226 23.32C141.538 23.32 141.808 23.23 142.036 23.05C142.276 22.87 142.414 22.618 142.45 22.294H142.828ZM143.368 22.564C143.356 22.744 143.398 22.918 143.494 23.086C143.59 23.242 143.77 23.326 144.034 23.338H144.286V23.5H143.26V22.564H143.368ZM143.854 12.448H144.034L144.394 13.51L143.278 23.5H142.288L143.854 12.448ZM144.034 12.448L148.93 21.862L148.516 23.752L143.692 14.428L144.034 12.448ZM153.538 12.448L155.158 23.5H153.79L152.62 14.446L153.376 12.448H153.538ZM154.618 22.294H154.978C155.026 22.618 155.17 22.87 155.41 23.05C155.65 23.23 155.92 23.32 156.22 23.32C156.22 23.32 156.262 23.32 156.346 23.32C156.442 23.32 156.49 23.32 156.49 23.32V23.5H154.618V22.294ZM153.664 22.564H153.79V23.5H152.746V23.338H153.016C153.292 23.326 153.472 23.236 153.556 23.068C153.652 22.9 153.688 22.732 153.664 22.564ZM159.819 12.7H161.817C162.657 12.7 163.383 12.826 163.995 13.078C164.607 13.318 165.081 13.672 165.417 14.14C165.753 14.596 165.921 15.142 165.921 15.778C165.921 16.462 165.765 17.05 165.453 17.542C165.153 18.022 164.751 18.394 164.247 18.658C163.743 18.91 163.185 19.036 162.573 19.036C161.961 19.024 161.349 18.868 160.737 18.568V18.388C160.737 18.388 160.833 18.406 161.025 18.442C161.229 18.478 161.487 18.496 161.799 18.496C162.111 18.484 162.441 18.43 162.789 18.334C163.137 18.226 163.461 18.034 163.761 17.758C164.073 17.482 164.319 17.086 164.499 16.57C164.547 16.438 164.577 16.282 164.589 16.102C164.613 15.922 164.625 15.754 164.625 15.598C164.625 14.866 164.373 14.29 163.869 13.87C163.365 13.45 162.669 13.24 161.781 13.24H160.017C160.017 13.24 159.999 13.198 159.963 13.114C159.939 13.018 159.909 12.928 159.873 12.844C159.837 12.748 159.819 12.7 159.819 12.7ZM160.053 12.7V23.5H158.901V12.7H160.053ZM158.937 22.348L159.171 23.5H157.605V23.32C157.605 23.32 157.647 23.32 157.731 23.32C157.815 23.32 157.857 23.32 157.857 23.32C158.145 23.32 158.385 23.224 158.577 23.032C158.781 22.84 158.889 22.612 158.901 22.348H158.937ZM158.937 13.834H158.901C158.889 13.558 158.781 13.33 158.577 13.15C158.385 12.97 158.145 12.88 157.857 12.88C157.857 12.88 157.815 12.88 157.731 12.88C157.647 12.88 157.605 12.88 157.605 12.88V12.7H159.171L158.937 13.834ZM159.999 22.348H160.035C160.047 22.612 160.149 22.84 160.341 23.032C160.545 23.224 160.791 23.32 161.079 23.32C161.091 23.32 161.133 23.32 161.205 23.32C161.289 23.32 161.331 23.32 161.331 23.32V23.5H159.765L159.999 22.348ZM170.002 12.7V23.5H168.85V12.7H170.002ZM174.844 22.942L174.808 23.5H169.966V22.942H174.844ZM175.852 20.926L174.862 23.5H172.126L172.738 22.942C173.338 22.942 173.818 22.858 174.178 22.69C174.55 22.51 174.85 22.27 175.078 21.97C175.306 21.658 175.504 21.31 175.672 20.926H175.852ZM168.886 22.348L169.12 23.5H167.554V23.32C167.554 23.32 167.596 23.32 167.68 23.32C167.764 23.32 167.806 23.32 167.806 23.32C168.106 23.32 168.352 23.224 168.544 23.032C168.736 22.84 168.838 22.612 168.85 22.348H168.886ZM169.948 13.852V12.7H171.28V12.88C171.28 12.88 171.244 12.88 171.172 12.88C171.1 12.88 171.064 12.88 171.064 12.88C170.776 12.88 170.524 12.976 170.308 13.168C170.104 13.348 170.002 13.576 170.002 13.852H169.948ZM168.886 13.852H168.85C168.838 13.576 168.73 13.348 168.526 13.168C168.322 12.976 168.07 12.88 167.77 12.88C167.77 12.88 167.734 12.88 167.662 12.88C167.59 12.88 167.554 12.88 167.554 12.88V12.7H168.886V13.852ZM179.375 12.7V23.5H178.241V12.7H179.375ZM178.295 22.348V23.5H176.765V23.32C176.765 23.32 176.807 23.32 176.891 23.32C176.975 23.32 177.017 23.32 177.017 23.32C177.353 23.32 177.635 23.224 177.863 23.032C178.103 22.84 178.229 22.612 178.241 22.348H178.295ZM179.321 22.348H179.375C179.387 22.612 179.507 22.84 179.735 23.032C179.975 23.224 180.263 23.32 180.599 23.32C180.599 23.32 180.635 23.32 180.707 23.32C180.791 23.32 180.833 23.32 180.833 23.32L180.851 23.5H179.321V22.348ZM179.321 13.852V12.7H180.851L180.833 12.88C180.833 12.88 180.791 12.88 180.707 12.88C180.635 12.88 180.599 12.88 180.599 12.88C180.263 12.88 179.975 12.976 179.735 13.168C179.507 13.348 179.387 13.576 179.375 13.852H179.321ZM178.295 13.852H178.241C178.229 13.576 178.103 13.348 177.863 13.168C177.635 12.976 177.353 12.88 177.017 12.88C177.005 12.88 176.957 12.88 176.873 12.88C176.801 12.88 176.765 12.88 176.765 12.88V12.7H178.295V13.852ZM185.26 12.7V23.5H184.126V12.7H185.26ZM189.31 17.83V18.37H185.224V17.83H189.31ZM190.156 12.7V13.258H185.224V12.7H190.156ZM189.31 18.334V19.36H189.112V19.126C189.112 18.922 189.052 18.748 188.932 18.604C188.824 18.448 188.638 18.37 188.374 18.37V18.334H189.31ZM189.31 16.84V17.866H188.374V17.83C188.638 17.83 188.824 17.758 188.932 17.614C189.052 17.458 189.112 17.278 189.112 17.074V16.84H189.31ZM190.156 13.204V14.446H189.958V14.176C189.958 13.924 189.874 13.708 189.706 13.528C189.55 13.348 189.334 13.258 189.058 13.258V13.204H190.156ZM190.156 12.412V12.88L188.086 12.7C188.338 12.7 188.602 12.688 188.878 12.664C189.154 12.628 189.406 12.586 189.634 12.538C189.874 12.49 190.048 12.448 190.156 12.412ZM184.162 22.348L184.396 23.5H182.812V23.32C182.812 23.32 182.854 23.32 182.938 23.32C183.022 23.32 183.064 23.32 183.064 23.32C183.364 23.32 183.61 23.224 183.802 23.032C184.006 22.84 184.114 22.612 184.126 22.348H184.162ZM184.162 13.834H184.126C184.114 13.558 184.006 13.33 183.802 13.15C183.61 12.97 183.364 12.88 183.064 12.88C183.064 12.88 183.022 12.88 182.938 12.88C182.854 12.88 182.812 12.88 182.812 12.88V12.7H184.396L184.162 13.834ZM185.224 22.348H185.26C185.272 22.612 185.374 22.84 185.566 23.032C185.77 23.224 186.022 23.32 186.322 23.32C186.322 23.32 186.364 23.32 186.448 23.32C186.532 23.32 186.574 23.32 186.574 23.32V23.5H184.99L185.224 22.348ZM194.844 12.7V23.5H193.71V12.7H194.844ZM193.764 22.348V23.5H192.234V23.32C192.234 23.32 192.276 23.32 192.36 23.32C192.444 23.32 192.486 23.32 192.486 23.32C192.822 23.32 193.104 23.224 193.332 23.032C193.572 22.84 193.698 22.612 193.71 22.348H193.764ZM194.79 22.348H194.844C194.856 22.612 194.976 22.84 195.204 23.032C195.444 23.224 195.732 23.32 196.068 23.32C196.068 23.32 196.104 23.32 196.176 23.32C196.26 23.32 196.302 23.32 196.302 23.32L196.32 23.5H194.79V22.348ZM194.79 13.852V12.7H196.32L196.302 12.88C196.302 12.88 196.26 12.88 196.176 12.88C196.104 12.88 196.068 12.88 196.068 12.88C195.732 12.88 195.444 12.976 195.204 13.168C194.976 13.348 194.856 13.576 194.844 13.852H194.79ZM193.764 13.852H193.71C193.698 13.576 193.572 13.348 193.332 13.168C193.104 12.976 192.822 12.88 192.486 12.88C192.474 12.88 192.426 12.88 192.342 12.88C192.27 12.88 192.234 12.88 192.234 12.88V12.7H193.764V13.852ZM200.728 12.7V23.5H199.576V12.7H200.728ZM205.57 22.942L205.534 23.5H200.692V22.942H205.57ZM204.724 17.83V18.37H200.692V17.83H204.724ZM205.552 12.7V13.258H200.692V12.7H205.552ZM206.578 20.926L205.588 23.5H202.852L203.464 22.942C204.064 22.942 204.544 22.858 204.904 22.69C205.276 22.51 205.576 22.27 205.804 21.97C206.032 21.658 206.23 21.31 206.398 20.926H206.578ZM204.724 18.334V19.36H204.526V19.126C204.526 18.922 204.466 18.748 204.346 18.604C204.226 18.448 204.04 18.37 203.788 18.37V18.334H204.724ZM204.724 16.84V17.866H203.788V17.83C204.04 17.83 204.226 17.758 204.346 17.614C204.466 17.458 204.526 17.278 204.526 17.074V16.84H204.724ZM205.552 13.204V14.446H205.354V14.176C205.354 13.924 205.27 13.708 205.102 13.528C204.946 13.348 204.73 13.258 204.454 13.258V13.204H205.552ZM205.552 12.412V12.88L203.5 12.7C203.872 12.7 204.268 12.67 204.688 12.61C205.108 12.538 205.396 12.472 205.552 12.412ZM199.612 22.348L199.846 23.5H198.28V23.32C198.28 23.32 198.322 23.32 198.406 23.32C198.49 23.32 198.532 23.32 198.532 23.32C198.832 23.32 199.078 23.224 199.27 23.032C199.462 22.84 199.564 22.612 199.576 22.348H199.612ZM199.612 13.834H199.576C199.564 13.558 199.462 13.33 199.27 13.15C199.078 12.97 198.832 12.88 198.532 12.88C198.532 12.88 198.49 12.88 198.406 12.88C198.322 12.88 198.28 12.88 198.28 12.88V12.7H199.846L199.612 13.834ZM213.943 12.7C215.131 12.7 216.157 12.916 217.021 13.348C217.885 13.78 218.551 14.404 219.019 15.22C219.487 16.024 219.721 16.984 219.721 18.1C219.721 19.216 219.487 20.176 219.019 20.98C218.551 21.784 217.885 22.408 217.021 22.852C216.157 23.284 215.131 23.5 213.943 23.5H210.109L210.073 22.96C210.913 22.96 211.615 22.96 212.179 22.96C212.755 22.96 213.193 22.96 213.493 22.96C213.793 22.96 213.943 22.96 213.943 22.96C215.335 22.96 216.427 22.528 217.219 21.664C218.023 20.788 218.425 19.6 218.425 18.1C218.425 16.6 218.023 15.418 217.219 14.554C216.427 13.678 215.335 13.24 213.943 13.24C213.943 13.24 213.787 13.24 213.475 13.24C213.163 13.24 212.707 13.24 212.107 13.24C211.507 13.24 210.769 13.24 209.893 13.24V12.7H213.943ZM210.361 12.7V23.5H209.191V12.7H210.361ZM209.227 22.33V23.5H207.931V23.32C207.931 23.32 207.967 23.32 208.039 23.32C208.123 23.32 208.165 23.32 208.165 23.32C208.453 23.32 208.693 23.224 208.885 23.032C209.077 22.828 209.179 22.594 209.191 22.33H209.227ZM209.227 13.87H209.191C209.179 13.582 209.071 13.348 208.867 13.168C208.675 12.976 208.435 12.88 208.147 12.88C208.147 12.88 208.111 12.88 208.039 12.88C207.967 12.88 207.931 12.88 207.931 12.88V12.7H209.227V13.87Z" fill="black"/>
</svg>
