<svg width="534" height="190" viewBox="0 0 534 190" fill="none" xmlns="http://www.w3.org/2000/svg">
<path d="M2.13863 6.27716C2.13863 5.9096 2.13863 5.57031 1.74265 5.57031C1.34668 5.57031 1.34668 5.9096 1.34668 6.27716V24.5703C1.34668 24.9379 1.34668 25.2772 1.74265 25.2772C2.13863 25.2772 2.13863 24.9379 2.13863 24.5703V6.27716Z" fill="black"/>
<path d="M13.5635 14.0512C13.5635 12.4679 13.4787 10.8846 12.7716 9.41434C11.8665 7.52 10.2543 7.20898 9.40578 7.20898C8.24614 7.20898 6.80366 7.71791 5.98343 9.55571C5.36118 10.9129 5.24805 12.4679 5.24805 14.0512C5.24805 15.5215 5.3329 17.3027 6.15313 18.8012C7.00165 20.3846 8.44413 20.7804 9.40578 20.7804C10.4523 20.7804 11.9796 20.3846 12.8281 18.4902C13.4787 17.1331 13.5635 15.6063 13.5635 14.0512ZM9.40578 20.3563C8.64211 20.3563 7.45419 19.8757 7.11478 17.9813C6.88851 16.7938 6.88851 14.956 6.88851 13.7968C6.88851 12.5527 6.88851 11.2521 7.05822 10.1777C7.42591 7.83101 8.89667 7.63309 9.40578 7.63309C10.0563 7.63309 11.3574 8.00065 11.7251 9.95154C11.923 11.0542 11.923 12.5527 11.923 13.7968C11.923 15.2953 11.923 16.6242 11.6968 17.8965C11.4139 19.7626 10.2826 20.3563 9.40578 20.3563Z" fill="black"/>
<path d="M19.7591 15.7489C19.8439 15.5227 19.8439 15.4944 19.8439 15.4379C19.8439 15.3531 19.8439 15.3248 19.7591 15.0986L16.2802 6.02269C16.167 5.68341 16.0539 5.57031 15.8276 5.57031C15.6296 5.57031 15.4316 5.73996 15.4316 5.93787C15.4316 6.02269 15.4316 6.05097 15.5448 6.27716L19.0237 15.4379L15.5448 24.542C15.4316 24.7682 15.4316 24.7965 15.4316 24.9096C15.4316 25.1075 15.6296 25.2772 15.8276 25.2772C16.0822 25.2772 16.167 25.1075 16.2519 24.9096L19.7591 15.7489Z" fill="black"/>
<path d="M66.7345 10.2065C66.9042 9.49963 66.9325 9.30171 68.375 9.30171C68.8841 9.30171 69.0538 9.30171 69.0538 8.90588C69.0538 8.67969 68.8275 8.67969 68.7709 8.67969C68.2336 8.67969 66.7911 8.73624 66.2537 8.73624C65.688 8.73624 64.2738 8.67969 63.7081 8.67969C63.5384 8.67969 63.3404 8.67969 63.3404 9.07552C63.3404 9.30171 63.5101 9.30171 63.8778 9.30171C63.9061 9.30171 64.3021 9.30171 64.6415 9.32999C64.9809 9.38653 65.1506 9.38653 65.1506 9.641C65.1506 9.72582 65.1506 9.78237 65.094 10.0368L63.9061 14.8434H57.8816L59.0413 10.2065C59.211 9.49963 59.2676 9.30171 60.71 9.30171C61.2191 9.30171 61.3606 9.30171 61.3606 8.90588C61.3606 8.67969 61.1626 8.67969 61.106 8.67969C60.5403 8.67969 59.1261 8.73624 58.5605 8.73624C57.9948 8.73624 56.5806 8.67969 56.0149 8.67969C55.8735 8.67969 55.6472 8.67969 55.6472 9.07552C55.6472 9.30171 55.8169 9.30171 56.2129 9.30171C56.2412 9.30171 56.6089 9.30171 56.9483 9.32999C57.316 9.38653 57.4857 9.38653 57.4857 9.641C57.4857 9.72582 57.4574 9.78237 57.4008 10.0368L54.7704 20.6395C54.5724 21.4029 54.5159 21.5443 52.9602 21.5443C52.6208 21.5443 52.4229 21.5443 52.4229 21.9401C52.4229 22.1663 52.6774 22.1663 52.7057 22.1663C53.2714 22.1663 54.6573 22.1097 55.223 22.1097C55.6189 22.1097 56.0715 22.138 56.4674 22.138C56.92 22.138 57.3442 22.1663 57.7685 22.1663C57.9099 22.1663 58.1645 22.1663 58.1645 21.7705C58.1645 21.5443 57.9665 21.5443 57.5988 21.5443C56.8634 21.5443 56.326 21.5443 56.326 21.205C56.326 21.0919 56.3543 20.9788 56.3826 20.8657L57.7119 15.4654H63.7364C62.9162 18.7452 62.4636 20.6112 62.3788 20.894C62.1808 21.5443 61.8131 21.5443 60.5686 21.5443C60.2858 21.5443 60.1161 21.5443 60.1161 21.9401C60.1161 22.1663 60.3423 22.1663 60.3989 22.1663C60.9363 22.1663 62.3505 22.1097 62.8879 22.1097C63.3122 22.1097 63.7364 22.138 64.1607 22.138C64.5849 22.138 65.0375 22.1663 65.4334 22.1663C65.6031 22.1663 65.8294 22.1663 65.8294 21.7705C65.8294 21.5443 65.6597 21.5443 65.292 21.5443C64.5566 21.5443 63.991 21.5443 63.991 21.205C63.991 21.0919 64.0475 20.9788 64.0475 20.8657L66.7345 10.2065Z" fill="black"/>
<path d="M75.1219 2.71484H46.1592" stroke="black" stroke-width="1.33333" stroke-miterlimit="10" stroke-linecap="round" stroke-linejoin="round"/>
<path d="M46.1592 2.71354V28.0469" stroke="black" stroke-width="1.33333" stroke-miterlimit="10" stroke-linecap="round" stroke-linejoin="round"/>
<path d="M46.1592 28.0469H75.1219" stroke="black" stroke-width="1.33333" stroke-miterlimit="10" stroke-linecap="round" stroke-linejoin="round"/>
<path d="M75.1221 28.0469V2.71354" stroke="black" stroke-width="1.33333" stroke-miterlimit="10" stroke-linecap="round" stroke-linejoin="round"/>
<path d="M46.1591 15.3809H31.6777" stroke="black" stroke-width="1.33333" stroke-miterlimit="10" stroke-linecap="round" stroke-linejoin="round"/>
<path d="M89.6034 15.3809H75.1221" stroke="black" stroke-width="1.33333" stroke-miterlimit="10" stroke-linecap="round" stroke-linejoin="round"/>
<path d="M129.427 15.3809H89.6035" stroke="black" stroke-width="1.33333" stroke-miterlimit="10" stroke-linecap="round" stroke-linejoin="round"/>
<path d="M198.214 15.3809H129.428" stroke="black" stroke-width="1.33333" stroke-miterlimit="10" stroke-linecap="round" stroke-linejoin="round"/>
<path d="M238.038 15.3809H198.214" stroke="black" stroke-width="1.33333" stroke-miterlimit="10" stroke-linecap="round" stroke-linejoin="round"/>
<path d="M244.993 14.8879C244.993 14.2942 244.513 13.8418 243.947 13.8418C243.381 13.8418 242.9 14.2942 242.9 14.8879C242.9 15.4534 243.381 15.9058 243.947 15.9058C244.513 15.9058 244.993 15.4534 244.993 14.8879Z" fill="black"/>
<path d="M253.777 14.8879C253.777 14.2942 253.296 13.8418 252.73 13.8418C252.164 13.8418 251.684 14.2942 251.684 14.8879C251.684 15.4534 252.164 15.9058 252.73 15.9058C253.296 15.9058 253.777 15.4534 253.777 14.8879Z" fill="black"/>
<path d="M262.541 14.8879C262.541 14.2942 262.06 13.8418 261.495 13.8418C260.929 13.8418 260.448 14.2942 260.448 14.8879C260.448 15.4534 260.929 15.9058 261.495 15.9058C262.06 15.9058 262.541 15.4534 262.541 14.8879Z" fill="black"/>
<path d="M323.883 15.3823C323.883 13.2618 322.129 11.5371 320.036 11.5371C317.915 11.5371 316.189 13.2901 316.189 15.3823C316.189 17.4463 317.915 19.1993 320.036 19.1993C322.129 19.1993 323.883 17.4746 323.883 15.3823Z" fill="black"/>
<path d="M319.495 18.9987V158.332" stroke="black" stroke-width="1.33333" stroke-miterlimit="10" stroke-linecap="round" stroke-linejoin="round"/>
<path d="M317.685 15.3809H267" stroke="black" stroke-width="1.33333" stroke-miterlimit="10" stroke-linecap="round" stroke-linejoin="round"/>
<path d="M389.792 78.4669C388.717 78.0711 386.511 76.6291 386.511 72.077C386.511 66.9594 389.283 65.3478 391.093 65.3478C393.016 65.3478 395.675 67.0443 395.675 72.077C395.675 73.6321 395.449 76.4029 393.356 77.958C392.932 76.8553 392.281 75.8657 391.121 75.8657C390.131 75.8657 389.509 76.7139 389.509 77.5056C389.509 78.0428 389.764 78.4103 389.792 78.4669ZM392.847 78.269C392.168 78.6365 391.546 78.7214 391.121 78.7214C390.103 78.7214 389.933 77.8166 389.933 77.5056C389.933 76.9401 390.358 76.2898 391.121 76.2898C392.196 76.2898 392.62 77.1097 392.847 78.269ZM393.667 78.6365C395.986 77.5904 397.655 75.074 397.655 72.077C397.655 68.0621 394.685 64.8672 391.093 64.8672C387.558 64.8672 384.531 68.0339 384.531 72.077C384.531 76.0636 387.501 79.202 391.121 79.202C391.715 79.202 392.422 79.0889 392.988 78.9193C393.271 80.7853 393.554 82.5949 395.392 82.5949C397.4 82.5949 397.768 79.9937 397.768 78.9758C397.768 78.7779 397.768 78.5517 397.57 78.5517C397.372 78.5517 397.372 78.7214 397.344 78.9193C397.231 79.9937 396.41 80.5874 395.562 80.5874C394.629 80.5874 394.119 79.9089 393.667 78.6365Z" fill="black"/>
<path d="M410.271 65.3477H399.438V65.9697H399.919C401.447 65.9697 401.475 66.1959 401.475 66.9027V77.2509C401.475 77.9578 401.447 78.1557 399.919 78.1557H399.438V78.7777C400.117 78.7212 401.673 78.7212 402.437 78.7212C403.257 78.7212 405.039 78.7212 405.746 78.7777V78.1557H405.095C403.229 78.1557 403.229 77.9012 403.229 77.2227V72.3596H404.926C406.821 72.3596 407.019 72.9816 407.019 74.678H407.528V69.4474H407.019C407.019 71.0872 406.821 71.7658 404.926 71.7658H403.229V66.7613C403.229 66.111 403.257 65.9697 404.19 65.9697H406.566C409.536 65.9697 410.017 67.0724 410.328 69.7866H410.837L410.271 65.3477Z" fill="black"/>
<path d="M424.831 65.4043H412.753L412.386 69.8716H412.895C413.149 66.6766 413.461 66.0263 416.43 66.0263C416.798 66.0263 417.307 66.0263 417.505 66.0546C417.929 66.1394 417.929 66.3656 417.929 66.818V77.2227C417.929 77.9013 417.929 78.1558 415.836 78.1558H415.044V78.7778C415.865 78.7213 417.873 78.7213 418.778 78.7213C419.683 78.7213 421.719 78.7213 422.54 78.7778V78.1558H421.748C419.683 78.1558 419.683 77.9013 419.683 77.2227V66.818C419.683 66.4222 419.683 66.1394 420.022 66.0546C420.249 66.0263 420.786 66.0263 421.154 66.0263C424.124 66.0263 424.435 66.6766 424.718 69.8716H425.198L424.831 65.4043Z" fill="black"/>
<path d="M436.009 67.1952C436.264 67.1952 436.575 67.1952 436.575 66.8842C436.575 66.5449 436.264 66.5449 436.009 66.5449H427.75C427.524 66.5449 427.213 66.5449 427.213 66.8842C427.213 67.1952 427.524 67.1952 427.75 67.1952H436.009Z" fill="black"/>
<path d="M442.39 61.2865C442.39 60.8906 442.361 60.8906 441.965 60.8906C441.371 61.4561 440.608 61.7954 439.25 61.7954V62.276C439.646 62.276 440.41 62.276 441.258 61.9085V69.2879C441.258 69.8251 441.202 69.9948 439.844 69.9948H439.335V70.4754C439.929 70.4189 441.173 70.4189 441.824 70.4189C442.474 70.4189 443.719 70.4189 444.313 70.4754V69.9948H443.804C442.446 69.9948 442.39 69.8251 442.39 69.2879V61.2865Z" fill="black"/>
<path d="M430.013 81.2166C430.24 80.9904 430.834 80.5098 431.088 80.3118C431.965 79.4919 432.813 78.7002 432.813 77.3996C432.813 75.6749 431.371 74.5723 429.589 74.5723C427.835 74.5723 426.704 75.8729 426.704 77.1735C426.704 77.8803 427.27 77.9651 427.468 77.9651C427.779 77.9651 428.231 77.7672 428.231 77.2017C428.231 76.4666 427.496 76.4666 427.326 76.4666C427.751 75.3922 428.712 75.0529 429.419 75.0529C430.749 75.0529 431.456 76.1839 431.456 77.3996C431.456 78.8982 430.409 80.0008 428.684 81.7255L426.874 83.6199C426.704 83.7613 426.704 83.7895 426.704 84.1571H432.389L432.813 81.5842H432.361C432.333 81.8669 432.219 82.5738 432.05 82.8565C431.965 82.9696 430.862 82.9696 430.636 82.9696H428.062L430.013 81.2166Z" fill="black"/>
<path d="M436.49 81.7815C436.547 81.5836 436.688 81.0181 436.716 80.8202C436.914 80.0286 436.914 80.0286 437.254 79.5479C437.734 78.8411 438.413 78.1908 439.375 78.1908C439.884 78.1908 440.195 78.5018 440.195 79.1803C440.195 79.972 439.601 81.6119 439.318 82.3187C439.12 82.7994 439.12 82.8842 439.12 83.0821C439.12 83.9021 439.799 84.2979 440.421 84.2979C441.836 84.2979 442.43 82.2905 442.43 82.0925C442.43 81.9512 442.316 81.8946 442.203 81.8946C442.034 81.8946 442.005 82.0077 441.977 82.1491C441.638 83.3366 441.015 83.9021 440.478 83.9021C440.252 83.9021 440.139 83.7607 440.139 83.4214C440.139 83.0821 440.252 82.7711 440.393 82.4036C440.591 81.8664 441.242 80.1982 441.242 79.4065C441.242 78.3039 440.478 77.7949 439.46 77.7949C438.272 77.7949 437.536 78.5018 437.112 79.039C436.999 78.2473 436.377 77.7949 435.641 77.7949C435.132 77.7949 434.765 78.1342 434.538 78.5866C434.171 79.2652 434.029 79.972 434.029 80.0003C434.029 80.1416 434.142 80.1982 434.256 80.1982C434.454 80.1982 434.454 80.1416 434.567 79.7458C434.736 79.039 434.991 78.1908 435.585 78.1908C435.981 78.1908 436.066 78.5583 436.066 78.8693C436.066 79.1521 435.981 79.4065 435.868 79.8872C435.839 80.0003 435.613 80.8485 435.557 81.0464L435.019 83.2235C434.963 83.4497 434.878 83.789 434.878 83.8455C434.878 84.1848 435.161 84.2979 435.359 84.2979C435.613 84.2979 435.839 84.1283 435.924 83.9586C435.981 83.8738 436.094 83.3649 436.151 83.0821L436.49 81.7815Z" fill="black"/>
<path d="M457.068 6.33203H373.8" stroke="black" stroke-width="1.33333" stroke-miterlimit="10" stroke-linecap="round" stroke-linejoin="round"/>
<path d="M373.8 6.33249V138.428" stroke="black" stroke-width="1.33333" stroke-miterlimit="10" stroke-linecap="round" stroke-linejoin="round"/>
<path d="M373.8 138.428H457.068" stroke="black" stroke-width="1.33333" stroke-miterlimit="10" stroke-linecap="round" stroke-linejoin="round"/>
<path d="M457.068 138.428V6.33249" stroke="black" stroke-width="1.33333" stroke-miterlimit="10" stroke-linecap="round" stroke-linejoin="round"/>
<path d="M373.8 15.3809H323.115" stroke="black" stroke-width="1.33333" stroke-miterlimit="10" stroke-linecap="round" stroke-linejoin="round"/>
<path d="M469.74 15.3809H457.068" stroke="black" stroke-width="1.33333" stroke-miterlimit="10" stroke-linecap="round" stroke-linejoin="round"/>
<path d="M486.03 22.6191C494.777 13.3665 508.417 13.3029 516.909 21.6013" stroke="black" stroke-width="1.33333" stroke-miterlimit="10" stroke-linecap="round" stroke-linejoin="round"/>
<path d="M502.322 22.6191L511.373 6.33343" stroke="black" stroke-width="1.33333" stroke-miterlimit="10" stroke-linecap="round" stroke-linejoin="round"/>
<path d="M518.614 0.904297H484.221" stroke="black" stroke-width="1.33333" stroke-miterlimit="10" stroke-linecap="round" stroke-linejoin="round"/>
<path d="M484.221 0.905041V29.8574" stroke="black" stroke-width="1.33333" stroke-miterlimit="10" stroke-linecap="round" stroke-linejoin="round"/>
<path d="M484.221 29.8574H518.614" stroke="black" stroke-width="1.33333" stroke-miterlimit="10" stroke-linecap="round" stroke-linejoin="round"/>
<path d="M518.613 29.8574V0.905041" stroke="black" stroke-width="1.33333" stroke-miterlimit="10" stroke-linecap="round" stroke-linejoin="round"/>
<path d="M484.221 15.3809H469.739" stroke="black" stroke-width="1.33333" stroke-miterlimit="10" stroke-linecap="round" stroke-linejoin="round"/>
<path d="M533.095 17.1895H518.613" stroke="black" stroke-width="1.33333" stroke-miterlimit="10" stroke-linecap="round" stroke-linejoin="round"/>
<path d="M533.095 13.5703H518.613" stroke="black" stroke-width="1.33333" stroke-miterlimit="10" stroke-linecap="round" stroke-linejoin="round"/>
<path d="M7.17699 50.134C7.17699 49.5685 6.69617 49.0879 6.13049 49.0879C5.56481 49.0879 5.08398 49.5685 5.08398 50.134C5.08398 50.6995 5.56481 51.1802 6.13049 51.1802C6.69617 51.1802 7.17699 50.6995 7.17699 50.134Z" fill="black"/>
<path d="M7.17699 57.345C7.17699 56.7795 6.69617 56.2988 6.13049 56.2988C5.56481 56.2988 5.08398 56.7795 5.08398 57.345C5.08398 57.9104 5.56481 58.3911 6.13049 58.3911C6.69617 58.3911 7.17699 57.9104 7.17699 57.345Z" fill="black"/>
<path d="M7.17699 64.5559C7.17699 63.9904 6.69617 63.5098 6.13049 63.5098C5.56481 63.5098 5.08398 63.9904 5.08398 64.5559C5.08398 65.1214 5.56481 65.602 6.13049 65.602C6.69617 65.602 7.17699 65.1214 7.17699 64.5559Z" fill="black"/>
<path d="M61.7161 50.134C61.7161 49.5685 61.2352 49.0879 60.6696 49.0879C60.1039 49.0879 59.623 49.5685 59.623 50.134C59.623 50.6995 60.1039 51.1802 60.6696 51.1802C61.2352 51.1802 61.7161 50.6995 61.7161 50.134Z" fill="black"/>
<path d="M61.7161 57.345C61.7161 56.7795 61.2352 56.2988 60.6696 56.2988C60.1039 56.2988 59.623 56.7795 59.623 57.345C59.623 57.9104 60.1039 58.3911 60.6696 58.3911C61.2352 58.3911 61.7161 57.9104 61.7161 57.345Z" fill="black"/>
<path d="M61.7161 64.5559C61.7161 63.9904 61.2352 63.5098 60.6696 63.5098C60.1039 63.5098 59.623 63.9904 59.623 64.5559C59.623 65.1214 60.1039 65.602 60.6696 65.602C61.2352 65.602 61.7161 65.1214 61.7161 64.5559Z" fill="black"/>
<path d="M502.769 50.134C502.769 49.5685 502.288 49.0879 501.722 49.0879C501.157 49.0879 500.676 49.5685 500.676 50.134C500.676 50.6995 501.157 51.1802 501.722 51.1802C502.288 51.1802 502.769 50.6995 502.769 50.134Z" fill="black"/>
<path d="M502.769 57.345C502.769 56.7795 502.288 56.2988 501.722 56.2988C501.157 56.2988 500.676 56.7795 500.676 57.345C500.676 57.9104 501.157 58.3911 501.722 58.3911C502.288 58.3911 502.769 57.9104 502.769 57.345Z" fill="black"/>
<path d="M502.769 64.5559C502.769 63.9904 502.288 63.5098 501.722 63.5098C501.157 63.5098 500.676 63.9904 500.676 64.5559C500.676 65.1214 501.157 65.602 501.722 65.602C502.288 65.602 502.769 65.1214 502.769 64.5559Z" fill="black"/>
<path d="M2.13863 79.3162C2.13863 78.9487 2.13863 78.6094 1.74265 78.6094C1.34668 78.6094 1.34668 78.9487 1.34668 79.3162V97.6094C1.34668 97.9769 1.34668 98.3162 1.74265 98.3162C2.13863 98.3162 2.13863 97.9769 2.13863 97.6094V79.3162Z" fill="black"/>
<path d="M13.5635 87.0923C13.5635 85.5089 13.4787 83.9256 12.7716 82.4554C11.8665 80.561 10.2543 80.25 9.40578 80.25C8.24614 80.25 6.80366 80.7589 5.98343 82.5967C5.36118 83.9539 5.24805 85.5089 5.24805 87.0923C5.24805 88.5625 5.3329 90.3438 6.15313 91.8423C7.00165 93.4256 8.44413 93.8214 9.40578 93.8214C10.4523 93.8214 11.9796 93.4256 12.8281 91.5312C13.4787 90.1741 13.5635 88.6473 13.5635 87.0923ZM9.40578 93.3973C8.64211 93.3973 7.45419 92.9167 7.11478 91.0223C6.88851 89.8348 6.88851 87.997 6.88851 86.8378C6.88851 85.5938 6.88851 84.2932 7.05822 83.2188C7.42591 80.872 8.89667 80.6741 9.40578 80.6741C10.0563 80.6741 11.3574 81.0417 11.7251 82.9926C11.923 84.0952 11.923 85.5938 11.923 86.8378C11.923 88.3363 11.923 89.6652 11.6968 90.9375C11.4139 92.8036 10.2826 93.3973 9.40578 93.3973Z" fill="black"/>
<path d="M19.7591 88.7879C19.8439 88.5618 19.8439 88.5335 19.8439 88.4769C19.8439 88.3921 19.8439 88.3638 19.7591 88.1376L16.2802 79.0618C16.167 78.7225 16.0539 78.6094 15.8276 78.6094C15.6296 78.6094 15.4316 78.779 15.4316 78.9769C15.4316 79.0618 15.4316 79.09 15.5448 79.3162L19.0237 88.4769L15.5448 97.5811C15.4316 97.8073 15.4316 97.8356 15.4316 97.9487C15.4316 98.1466 15.6296 98.3162 15.8276 98.3162C16.0822 98.3162 16.167 98.1466 16.2519 97.9487L19.7591 88.7879Z" fill="black"/>
<path d="M66.7345 83.2455C66.9042 82.5387 66.9325 82.3408 68.375 82.3408C68.8841 82.3408 69.0538 82.3408 69.0538 81.9449C69.0538 81.7188 68.8275 81.7188 68.7709 81.7188C68.2336 81.7188 66.7911 81.7753 66.2537 81.7753C65.688 81.7753 64.2738 81.7188 63.7081 81.7188C63.5384 81.7188 63.3404 81.7188 63.3404 82.1146C63.3404 82.3408 63.5101 82.3408 63.8778 82.3408C63.9061 82.3408 64.3021 82.3408 64.6415 82.369C64.9809 82.4256 65.1506 82.4256 65.1506 82.6801C65.1506 82.7649 65.1506 82.8214 65.094 83.0759L63.9061 87.8824H57.8816L59.0413 83.2455C59.211 82.5387 59.2676 82.3408 60.71 82.3408C61.2191 82.3408 61.3606 82.3408 61.3606 81.9449C61.3606 81.7188 61.1626 81.7188 61.106 81.7188C60.5403 81.7188 59.1261 81.7753 58.5605 81.7753C57.9948 81.7753 56.5806 81.7188 56.0149 81.7188C55.8735 81.7188 55.6472 81.7188 55.6472 82.1146C55.6472 82.3408 55.8169 82.3408 56.2129 82.3408C56.2412 82.3408 56.6089 82.3408 56.9483 82.369C57.316 82.4256 57.4857 82.4256 57.4857 82.6801C57.4857 82.7649 57.4574 82.8214 57.4008 83.0759L54.7704 93.6786C54.5724 94.442 54.5159 94.5833 52.9602 94.5833C52.6208 94.5833 52.4229 94.5833 52.4229 94.9792C52.4229 95.2054 52.6774 95.2054 52.7057 95.2054C53.2714 95.2054 54.6573 95.1488 55.223 95.1488C55.6189 95.1488 56.0715 95.1771 56.4674 95.1771C56.92 95.1771 57.3442 95.2054 57.7685 95.2054C57.9099 95.2054 58.1645 95.2054 58.1645 94.8095C58.1645 94.5833 57.9665 94.5833 57.5988 94.5833C56.8634 94.5833 56.326 94.5833 56.326 94.244C56.326 94.131 56.3543 94.0179 56.3826 93.9048L57.7119 88.5045H63.7364C62.9162 91.7842 62.4636 93.6503 62.3788 93.933C62.1808 94.5833 61.8131 94.5833 60.5686 94.5833C60.2858 94.5833 60.1161 94.5833 60.1161 94.9792C60.1161 95.2054 60.3423 95.2054 60.3989 95.2054C60.9363 95.2054 62.3505 95.1488 62.8879 95.1488C63.3122 95.1488 63.7364 95.1771 64.1607 95.1771C64.5849 95.1771 65.0375 95.2054 65.4334 95.2054C65.6031 95.2054 65.8294 95.2054 65.8294 94.8095C65.8294 94.5833 65.6597 94.5833 65.292 94.5833C64.5566 94.5833 63.991 94.5833 63.991 94.244C63.991 94.131 64.0475 94.0179 64.0475 93.9048L66.7345 83.2455Z" fill="black"/>
<path d="M75.1219 75.0938H46.1592" stroke="black" stroke-width="1.33333" stroke-miterlimit="10" stroke-linecap="round" stroke-linejoin="round"/>
<path d="M46.1592 75.0944V100.428" stroke="black" stroke-width="1.33333" stroke-miterlimit="10" stroke-linecap="round" stroke-linejoin="round"/>
<path d="M46.1592 100.428H75.1219" stroke="black" stroke-width="1.33333" stroke-miterlimit="10" stroke-linecap="round" stroke-linejoin="round"/>
<path d="M75.1221 100.428V75.0944" stroke="black" stroke-width="1.33333" stroke-miterlimit="10" stroke-linecap="round" stroke-linejoin="round"/>
<path d="M46.1591 87.7617H31.6777" stroke="black" stroke-width="1.33333" stroke-miterlimit="10" stroke-linecap="round" stroke-linejoin="round"/>
<path d="M89.6034 87.7617H75.1221" stroke="black" stroke-width="1.33333" stroke-miterlimit="10" stroke-linecap="round" stroke-linejoin="round"/>
<path d="M129.427 87.7617H89.6035" stroke="black" stroke-width="1.33333" stroke-miterlimit="10" stroke-linecap="round" stroke-linejoin="round"/>
<path d="M201.906 88.4214C201.906 86.3009 200.153 84.5762 198.06 84.5762C195.938 84.5762 194.213 86.3291 194.213 88.4214C194.213 90.4854 195.938 92.2384 198.06 92.2384C200.153 92.2384 201.906 90.5137 201.906 88.4214Z" fill="black"/>
<path d="M198.214 91.3797V158.332" stroke="black" stroke-width="1.33333" stroke-miterlimit="10" stroke-linecap="round" stroke-linejoin="round"/>
<path d="M196.404 87.7617H129.428" stroke="black" stroke-width="1.33333" stroke-miterlimit="10" stroke-linecap="round" stroke-linejoin="round"/>
<path d="M238.037 87.7617H200.023" stroke="black" stroke-width="1.33333" stroke-miterlimit="10" stroke-linecap="round" stroke-linejoin="round"/>
<path d="M244.993 87.9289C244.993 87.3352 244.513 86.8828 243.947 86.8828C243.381 86.8828 242.9 87.3352 242.9 87.9289C242.9 88.4944 243.381 88.9468 243.947 88.9468C244.513 88.9468 244.993 88.4944 244.993 87.9289Z" fill="black"/>
<path d="M253.777 87.9289C253.777 87.3352 253.296 86.8828 252.73 86.8828C252.164 86.8828 251.684 87.3352 251.684 87.9289C251.684 88.4944 252.164 88.9468 252.73 88.9468C253.296 88.9468 253.777 88.4944 253.777 87.9289Z" fill="black"/>
<path d="M262.541 87.9289C262.541 87.3352 262.06 86.8828 261.495 86.8828C260.929 86.8828 260.448 87.3352 260.448 87.9289C260.448 88.4944 260.929 88.9468 261.495 88.9468C262.06 88.9468 262.541 88.4944 262.541 87.9289Z" fill="black"/>
<path d="M319.495 87.7617H267" stroke="black" stroke-width="1.33333" stroke-miterlimit="10" stroke-linecap="round" stroke-linejoin="round"/>
<path d="M373.8 87.7617H319.495" stroke="black" stroke-width="1.33333" stroke-miterlimit="10" stroke-linecap="round" stroke-linejoin="round"/>
<path d="M469.74 87.7617H457.068" stroke="black" stroke-width="1.33333" stroke-miterlimit="10" stroke-linecap="round" stroke-linejoin="round"/>
<path d="M486.03 95C494.777 86.4048 508.417 86.3482 516.909 94.6395" stroke="black" stroke-width="1.33333" stroke-miterlimit="10" stroke-linecap="round" stroke-linejoin="round"/>
<path d="M502.322 96.8086L511.373 78.7134" stroke="black" stroke-width="1.33333" stroke-miterlimit="10" stroke-linecap="round" stroke-linejoin="round"/>
<path d="M518.614 75.0938H484.221" stroke="black" stroke-width="1.33333" stroke-miterlimit="10" stroke-linecap="round" stroke-linejoin="round"/>
<path d="M484.221 75.0954V102.238" stroke="black" stroke-width="1.33333" stroke-miterlimit="10" stroke-linecap="round" stroke-linejoin="round"/>
<path d="M484.221 102.238H518.614" stroke="black" stroke-width="1.33333" stroke-miterlimit="10" stroke-linecap="round" stroke-linejoin="round"/>
<path d="M518.613 102.238V75.0954" stroke="black" stroke-width="1.33333" stroke-miterlimit="10" stroke-linecap="round" stroke-linejoin="round"/>
<path d="M484.221 87.7617H469.739" stroke="black" stroke-width="1.33333" stroke-miterlimit="10" stroke-linecap="round" stroke-linejoin="round"/>
<path d="M533.095 89.5703H518.613" stroke="black" stroke-width="1.33333" stroke-miterlimit="10" stroke-linecap="round" stroke-linejoin="round"/>
<path d="M533.095 85.9512H518.613" stroke="black" stroke-width="1.33333" stroke-miterlimit="10" stroke-linecap="round" stroke-linejoin="round"/>
<path d="M2.13863 120.771C2.13863 120.404 2.13863 120.064 1.74265 120.064C1.34668 120.064 1.34668 120.404 1.34668 120.771V139.064C1.34668 139.432 1.34668 139.771 1.74265 139.771C2.13863 139.771 2.13863 139.432 2.13863 139.064V120.771Z" fill="black"/>
<path d="M13.5635 128.545C13.5635 126.962 13.4787 125.379 12.7716 123.908C11.8665 122.014 10.2543 121.703 9.40578 121.703C8.24614 121.703 6.80366 122.212 5.98343 124.05C5.36118 125.407 5.24805 126.962 5.24805 128.545C5.24805 130.016 5.3329 131.797 6.15313 133.295C7.00165 134.879 8.44413 135.275 9.40578 135.275C10.4523 135.275 11.9796 134.879 12.8281 132.984C13.4787 131.627 13.5635 130.1 13.5635 128.545ZM9.40578 134.85C8.64211 134.85 7.45419 134.37 7.11478 132.475C6.88851 131.288 6.88851 129.45 6.88851 128.291C6.88851 127.047 6.88851 125.746 7.05822 124.672C7.42591 122.325 8.89667 122.127 9.40578 122.127C10.0563 122.127 11.3574 122.495 11.7251 124.446C11.923 125.548 11.923 127.047 11.923 128.291C11.923 129.789 11.923 131.118 11.6968 132.391C11.4139 134.257 10.2826 134.85 9.40578 134.85Z" fill="black"/>
<path d="M19.7591 130.241C19.8439 130.015 19.8439 129.987 19.8439 129.93C19.8439 129.845 19.8439 129.817 19.7591 129.591L16.2802 120.515C16.167 120.176 16.0539 120.062 15.8276 120.062C15.6296 120.062 15.4316 120.232 15.4316 120.43C15.4316 120.515 15.4316 120.543 15.5448 120.769L19.0237 129.93L15.5448 139.034C15.4316 139.26 15.4316 139.289 15.4316 139.402C15.4316 139.6 15.6296 139.769 15.8276 139.769C16.0822 139.769 16.167 139.6 16.2519 139.402L19.7591 130.241Z" fill="black"/>
<path d="M66.7345 124.701C66.9042 123.994 66.9325 123.796 68.375 123.796C68.8841 123.796 69.0538 123.796 69.0538 123.4C69.0538 123.174 68.8275 123.174 68.7709 123.174C68.2336 123.174 66.7911 123.23 66.2537 123.23C65.688 123.23 64.2738 123.174 63.7081 123.174C63.5384 123.174 63.3404 123.174 63.3404 123.57C63.3404 123.796 63.5101 123.796 63.8778 123.796C63.9061 123.796 64.3021 123.796 64.6415 123.824C64.9809 123.881 65.1506 123.881 65.1506 124.135C65.1506 124.22 65.1506 124.277 65.094 124.531L63.9061 129.338H57.8816L59.0413 124.701C59.211 123.994 59.2676 123.796 60.71 123.796C61.2191 123.796 61.3606 123.796 61.3606 123.4C61.3606 123.174 61.1626 123.174 61.106 123.174C60.5403 123.174 59.1261 123.23 58.5605 123.23C57.9948 123.23 56.5806 123.174 56.0149 123.174C55.8735 123.174 55.6472 123.174 55.6472 123.57C55.6472 123.796 55.8169 123.796 56.2129 123.796C56.2412 123.796 56.6089 123.796 56.9483 123.824C57.316 123.881 57.4857 123.881 57.4857 124.135C57.4857 124.22 57.4574 124.277 57.4008 124.531L54.7704 135.134C54.5724 135.897 54.5159 136.038 52.9602 136.038C52.6208 136.038 52.4229 136.038 52.4229 136.434C52.4229 136.66 52.6774 136.66 52.7057 136.66C53.2714 136.66 54.6573 136.604 55.223 136.604C55.6189 136.604 56.0715 136.632 56.4674 136.632C56.92 136.632 57.3442 136.66 57.7685 136.66C57.9099 136.66 58.1645 136.66 58.1645 136.265C58.1645 136.038 57.9665 136.038 57.5988 136.038C56.8634 136.038 56.326 136.038 56.326 135.699C56.326 135.586 56.3543 135.473 56.3826 135.36L57.7119 129.96H63.7364C62.9162 133.239 62.4636 135.105 62.3788 135.388C62.1808 136.038 61.8131 136.038 60.5686 136.038C60.2858 136.038 60.1161 136.038 60.1161 136.434C60.1161 136.66 60.3423 136.66 60.3989 136.66C60.9363 136.66 62.3505 136.604 62.8879 136.604C63.3122 136.604 63.7364 136.632 64.1607 136.632C64.5849 136.632 65.0375 136.66 65.4334 136.66C65.6031 136.66 65.8294 136.66 65.8294 136.265C65.8294 136.038 65.6597 136.038 65.292 136.038C64.5566 136.038 63.991 136.038 63.991 135.699C63.991 135.586 64.0475 135.473 64.0475 135.36L66.7345 124.701Z" fill="black"/>
<path d="M75.1219 116.715H46.1592" stroke="black" stroke-width="1.33333" stroke-miterlimit="10" stroke-linecap="round" stroke-linejoin="round"/>
<path d="M46.1592 116.714V142.047" stroke="black" stroke-width="1.33333" stroke-miterlimit="10" stroke-linecap="round" stroke-linejoin="round"/>
<path d="M46.1592 142.047H75.1219" stroke="black" stroke-width="1.33333" stroke-miterlimit="10" stroke-linecap="round" stroke-linejoin="round"/>
<path d="M75.1221 142.047V116.714" stroke="black" stroke-width="1.33333" stroke-miterlimit="10" stroke-linecap="round" stroke-linejoin="round"/>
<path d="M46.1591 129.381H31.6777" stroke="black" stroke-width="1.33333" stroke-miterlimit="10" stroke-linecap="round" stroke-linejoin="round"/>
<path d="M89.6034 129.381H75.1221" stroke="black" stroke-width="1.33333" stroke-miterlimit="10" stroke-linecap="round" stroke-linejoin="round"/>
<path d="M134.081 129.875C134.081 127.754 132.327 126.029 130.234 126.029C128.113 126.029 126.388 127.782 126.388 129.875C126.388 131.939 128.113 133.691 130.234 133.691C132.327 133.691 134.081 131.967 134.081 129.875Z" fill="black"/>
<path d="M129.428 132.999V158.332" stroke="black" stroke-width="1.33333" stroke-miterlimit="10" stroke-linecap="round" stroke-linejoin="round"/>
<path d="M127.617 129.381H89.6035" stroke="black" stroke-width="1.33333" stroke-miterlimit="10" stroke-linecap="round" stroke-linejoin="round"/>
<path d="M198.214 129.381H133.048" stroke="black" stroke-width="1.33333" stroke-miterlimit="10" stroke-linecap="round" stroke-linejoin="round"/>
<path d="M238.038 129.381H198.214" stroke="black" stroke-width="1.33333" stroke-miterlimit="10" stroke-linecap="round" stroke-linejoin="round"/>
<path d="M244.993 129.382C244.993 128.788 244.513 128.336 243.947 128.336C243.381 128.336 242.9 128.788 242.9 129.382C242.9 129.948 243.381 130.4 243.947 130.4C244.513 130.4 244.993 129.948 244.993 129.382Z" fill="black"/>
<path d="M253.777 129.382C253.777 128.788 253.296 128.336 252.73 128.336C252.164 128.336 251.684 128.788 251.684 129.382C251.684 129.948 252.164 130.4 252.73 130.4C253.296 130.4 253.777 129.948 253.777 129.382Z" fill="black"/>
<path d="M262.541 129.382C262.541 128.788 262.06 128.336 261.495 128.336C260.929 128.336 260.448 128.788 260.448 129.382C260.448 129.948 260.929 130.4 261.495 130.4C262.06 130.4 262.541 129.948 262.541 129.382Z" fill="black"/>
<path d="M319.495 129.381H267" stroke="black" stroke-width="1.33333" stroke-miterlimit="10" stroke-linecap="round" stroke-linejoin="round"/>
<path d="M373.8 129.381H319.495" stroke="black" stroke-width="1.33333" stroke-miterlimit="10" stroke-linecap="round" stroke-linejoin="round"/>
<path d="M469.74 129.381H457.068" stroke="black" stroke-width="1.33333" stroke-miterlimit="10" stroke-linecap="round" stroke-linejoin="round"/>
<path d="M486.03 136.619C494.777 127.854 508.417 127.798 516.909 136.096" stroke="black" stroke-width="1.33333" stroke-miterlimit="10" stroke-linecap="round" stroke-linejoin="round"/>
<path d="M502.322 138.428L511.373 120.332" stroke="black" stroke-width="1.33333" stroke-miterlimit="10" stroke-linecap="round" stroke-linejoin="round"/>
<path d="M518.614 116.715H484.221" stroke="black" stroke-width="1.33333" stroke-miterlimit="10" stroke-linecap="round" stroke-linejoin="round"/>
<path d="M484.221 116.715V143.857" stroke="black" stroke-width="1.33333" stroke-miterlimit="10" stroke-linecap="round" stroke-linejoin="round"/>
<path d="M484.221 143.857H518.614" stroke="black" stroke-width="1.33333" stroke-miterlimit="10" stroke-linecap="round" stroke-linejoin="round"/>
<path d="M518.613 143.857V116.715" stroke="black" stroke-width="1.33333" stroke-miterlimit="10" stroke-linecap="round" stroke-linejoin="round"/>
<path d="M484.221 129.381H469.739" stroke="black" stroke-width="1.33333" stroke-miterlimit="10" stroke-linecap="round" stroke-linejoin="round"/>
<path d="M533.095 131.189H518.613" stroke="black" stroke-width="1.33333" stroke-miterlimit="10" stroke-linecap="round" stroke-linejoin="round"/>
<path d="M533.095 127.57H518.613" stroke="black" stroke-width="1.33333" stroke-miterlimit="10" stroke-linecap="round" stroke-linejoin="round"/>
<path d="M2.13863 163.939C2.13863 163.572 2.13863 163.232 1.74265 163.232C1.34668 163.232 1.34668 163.572 1.34668 163.939V182.232C1.34668 182.6 1.34668 182.939 1.74265 182.939C2.13863 182.939 2.13863 182.6 2.13863 182.232V163.939Z" fill="black"/>
<path d="M10.2819 165.382C10.2819 164.93 10.2819 164.873 9.82936 164.873C8.61315 166.145 6.85955 166.145 6.2373 166.145V166.739C6.63328 166.739 7.79292 166.739 8.83942 166.23V176.465C8.83942 177.172 8.75457 177.398 7.00097 177.398H6.35044V178.02C7.05754 177.964 8.75457 177.964 9.54652 177.964C10.3385 177.964 12.0638 177.964 12.7426 178.02V177.398H12.1204C10.3385 177.398 10.2819 177.2 10.2819 176.465V165.382Z" fill="black"/>
<path d="M19.7591 173.413C19.8439 173.187 19.8439 173.158 19.8439 173.102C19.8439 173.017 19.8439 172.989 19.7591 172.763L16.2802 163.687C16.167 163.347 16.0539 163.234 15.8276 163.234C15.6296 163.234 15.4316 163.404 15.4316 163.602C15.4316 163.687 15.4316 163.715 15.5448 163.941L19.0237 173.102L15.5448 182.206C15.4316 182.432 15.4316 182.461 15.4316 182.574C15.4316 182.772 15.6296 182.941 15.8276 182.941C16.0822 182.941 16.167 182.772 16.2519 182.574L19.7591 173.413Z" fill="black"/>
<path d="M59.2832 163.969C59.3963 163.715 59.3963 163.63 59.3963 163.602C59.3963 163.404 59.2266 163.234 59.0004 163.234C58.859 163.234 58.7175 163.291 58.661 163.404L51.8163 182.206C51.7031 182.461 51.7031 182.545 51.7031 182.574C51.7031 182.772 51.9011 182.941 52.0991 182.941C52.3537 182.941 52.4385 182.828 52.5516 182.489L59.2832 163.969Z" fill="black"/>
<path d="M63.3884 168.481C63.445 168.283 63.5864 167.717 63.6147 167.519C63.8127 166.728 63.8127 166.728 64.1521 166.247C64.6329 165.54 65.3117 164.89 66.2734 164.89C66.7825 164.89 67.0936 165.201 67.0936 165.88C67.0936 166.671 66.4997 168.311 66.2168 169.018C66.0188 169.499 66.0188 169.583 66.0188 169.781C66.0188 170.601 66.6976 170.997 67.3199 170.997C68.7341 170.997 69.3281 168.99 69.3281 168.792C69.3281 168.65 69.2149 168.594 69.1018 168.594C68.9321 168.594 68.9038 168.707 68.8755 168.848C68.5361 170.036 67.9139 170.601 67.3765 170.601C67.1502 170.601 67.0371 170.46 67.0371 170.121C67.0371 169.781 67.1502 169.47 67.2916 169.103C67.4896 168.566 68.1401 166.897 68.1401 166.106C68.1401 165.003 67.3765 164.494 66.3582 164.494C65.1703 164.494 64.4349 165.201 64.0107 165.738C63.8975 164.947 63.2753 164.494 62.5399 164.494C62.0308 164.494 61.6631 164.833 61.4368 165.286C61.0692 165.964 60.9277 166.671 60.9277 166.699C60.9277 166.841 61.0409 166.897 61.154 166.897C61.352 166.897 61.352 166.841 61.4651 166.445C61.6348 165.738 61.8894 164.89 62.4833 164.89C62.8793 164.89 62.9642 165.258 62.9642 165.569C62.9642 165.851 62.8793 166.106 62.7662 166.586C62.7379 166.699 62.5116 167.548 62.4551 167.746L61.9177 169.923C61.8611 170.149 61.7763 170.488 61.7763 170.545C61.7763 170.884 62.0591 170.997 62.2571 170.997C62.5116 170.997 62.7379 170.827 62.8228 170.658C62.8793 170.573 62.9925 170.064 63.049 169.781L63.3884 168.481Z" fill="black"/>
<path d="M60.6404 172.809H31.6777" stroke="black" stroke-width="1.33333" stroke-miterlimit="10" stroke-linecap="round" stroke-linejoin="round"/>
<path d="M89.6033 172.809H60.6406" stroke="black" stroke-width="1.33333" stroke-miterlimit="10" stroke-linecap="round" stroke-linejoin="round"/>
<path d="M121.701 171.303C121.899 170.483 122.267 169.89 123.851 169.833C123.936 169.833 124.162 169.805 124.162 169.437C124.162 169.409 124.162 169.211 123.908 169.211C123.257 169.211 122.578 169.267 121.899 169.267C121.221 169.267 120.513 169.211 119.863 169.211C119.722 169.211 119.495 169.211 119.495 169.607C119.495 169.833 119.693 169.833 119.863 169.833C120.966 169.861 121.192 170.257 121.192 170.709C121.192 170.766 121.164 171.049 121.136 171.105L119.354 178.145C118.675 180.803 116.412 182.528 114.432 182.528C113.103 182.528 112.028 181.651 112.028 179.955C112.028 179.927 112.028 179.276 112.255 178.428L114.178 170.738C114.348 170.031 114.376 169.833 115.818 169.833C116.327 169.833 116.497 169.833 116.497 169.437C116.497 169.211 116.271 169.211 116.214 169.211C115.677 169.211 114.234 169.267 113.697 169.267C113.131 169.267 111.717 169.211 111.152 169.211C110.982 169.211 110.784 169.211 110.784 169.607C110.784 169.833 110.954 169.833 111.321 169.833C111.349 169.833 111.745 169.833 112.085 169.861C112.424 169.918 112.594 169.918 112.594 170.172C112.594 170.314 112.396 171.134 112.283 171.586L111.83 173.311C111.661 174.102 110.699 177.834 110.642 178.202C110.501 178.739 110.501 179.05 110.501 179.333C110.501 181.736 112.283 183.122 114.376 183.122C116.865 183.122 119.297 180.888 119.948 178.287L121.701 171.303Z" fill="black"/>
<path d="M132.161 175.233C131.822 174.498 131.256 173.961 130.351 173.961C128.032 173.961 125.6 176.873 125.6 179.757C125.6 181.623 126.674 182.924 128.23 182.924C128.626 182.924 129.616 182.839 130.776 181.425C130.945 182.273 131.652 182.924 132.586 182.924C133.265 182.924 133.717 182.471 134.056 181.821C134.396 181.114 134.65 179.927 134.65 179.87C134.65 179.672 134.452 179.672 134.396 179.672C134.198 179.672 134.198 179.757 134.113 180.04C133.802 181.312 133.434 182.471 132.614 182.471C132.105 182.471 132.02 181.962 132.02 181.567C132.02 181.142 132.077 180.973 132.303 180.125C132.501 179.276 132.557 179.078 132.727 178.343L133.434 175.573C133.576 175.007 133.576 174.979 133.576 174.894C133.576 174.555 133.349 174.357 133.01 174.357C132.529 174.357 132.218 174.809 132.161 175.233ZM130.889 180.351C130.776 180.718 130.776 180.747 130.493 181.086C129.616 182.16 128.824 182.471 128.258 182.471C127.268 182.471 126.986 181.397 126.986 180.634C126.986 179.644 127.636 177.212 128.089 176.308C128.711 175.148 129.588 174.413 130.38 174.413C131.652 174.413 131.935 176.025 131.935 176.138C131.935 176.251 131.907 176.392 131.879 176.477L130.889 180.351Z" fill="black"/>
<path d="M139.32 172.594C139.546 172.367 140.14 171.887 140.395 171.689C141.272 170.869 142.12 170.077 142.12 168.777C142.12 167.052 140.678 165.949 138.896 165.949C137.142 165.949 136.011 167.25 136.011 168.55C136.011 169.257 136.576 169.342 136.774 169.342C137.086 169.342 137.538 169.144 137.538 168.579C137.538 167.844 136.803 167.844 136.633 167.844C137.057 166.769 138.019 166.43 138.726 166.43C140.055 166.43 140.762 167.561 140.762 168.777C140.762 170.275 139.716 171.378 137.991 173.102L136.18 174.997C136.011 175.138 136.011 175.166 136.011 175.534H141.696L142.12 172.961H141.668C141.639 173.244 141.526 173.951 141.356 174.233C141.272 174.347 140.168 174.347 139.942 174.347H137.368L139.32 172.594Z" fill="black"/>
<path d="M148.879 166.995C148.879 166.203 148.879 163.234 146.22 163.234C143.562 163.234 143.562 166.203 143.562 166.995C143.562 167.758 143.562 170.67 146.22 170.67C148.879 170.67 148.879 167.758 148.879 166.995ZM146.22 170.331C145.768 170.331 145.032 170.105 144.749 169.2C144.58 168.578 144.58 167.532 144.58 166.853C144.58 166.118 144.58 165.298 144.749 164.705C145.004 163.743 145.824 163.602 146.22 163.602C146.701 163.602 147.436 163.828 147.663 164.648C147.832 165.214 147.832 166.005 147.832 166.853C147.832 167.532 147.832 168.635 147.663 169.228C147.352 170.19 146.56 170.331 146.22 170.331Z" fill="black"/>
<path d="M156.58 158.332H104.085" stroke="black" stroke-width="1.33333" stroke-miterlimit="10" stroke-linecap="round" stroke-linejoin="round"/>
<path d="M104.085 158.334V189.096" stroke="black" stroke-width="1.33333" stroke-miterlimit="10" stroke-linecap="round" stroke-linejoin="round"/>
<path d="M104.085 189.096H156.58" stroke="black" stroke-width="1.33333" stroke-miterlimit="10" stroke-linecap="round" stroke-linejoin="round"/>
<path d="M156.58 189.094V158.332" stroke="black" stroke-width="1.33333" stroke-miterlimit="10" stroke-linecap="round" stroke-linejoin="round"/>
<path d="M104.085 172.809H89.6035" stroke="black" stroke-width="1.33333" stroke-miterlimit="10" stroke-linecap="round" stroke-linejoin="round"/>
<path d="M189.529 171.303C189.727 170.483 190.094 169.89 191.678 169.833C191.763 169.833 191.989 169.805 191.989 169.437C191.989 169.409 191.989 169.211 191.735 169.211C191.084 169.211 190.405 169.267 189.727 169.267C189.048 169.267 188.341 169.211 187.69 169.211C187.549 169.211 187.322 169.211 187.322 169.607C187.322 169.833 187.52 169.833 187.69 169.833C188.793 169.861 189.019 170.257 189.019 170.709C189.019 170.766 188.991 171.049 188.963 171.105L187.181 178.145C186.502 180.803 184.239 182.528 182.26 182.528C180.93 182.528 179.855 181.651 179.855 179.955C179.855 179.927 179.855 179.276 180.082 178.428L182.005 170.738C182.175 170.031 182.203 169.833 183.645 169.833C184.155 169.833 184.324 169.833 184.324 169.437C184.324 169.211 184.098 169.211 184.041 169.211C183.504 169.211 182.062 169.267 181.524 169.267C180.959 169.267 179.544 169.211 178.979 169.211C178.809 169.211 178.611 169.211 178.611 169.607C178.611 169.833 178.781 169.833 179.148 169.833C179.177 169.833 179.573 169.833 179.912 169.861C180.251 169.918 180.421 169.918 180.421 170.172C180.421 170.314 180.223 171.134 180.11 171.586L179.657 173.311C179.488 174.102 178.526 177.834 178.47 178.202C178.328 178.739 178.328 179.05 178.328 179.333C178.328 181.736 180.11 183.122 182.203 183.122C184.692 183.122 187.124 180.888 187.775 178.287L189.529 171.303Z" fill="black"/>
<path d="M199.989 175.233C199.649 174.498 199.084 173.961 198.178 173.961C195.859 173.961 193.427 176.873 193.427 179.757C193.427 181.623 194.502 182.924 196.057 182.924C196.453 182.924 197.443 182.839 198.603 181.425C198.772 182.273 199.48 182.924 200.413 182.924C201.092 182.924 201.544 182.471 201.884 181.821C202.223 181.114 202.478 179.927 202.478 179.87C202.478 179.672 202.28 179.672 202.223 179.672C202.025 179.672 202.025 179.757 201.94 180.04C201.629 181.312 201.261 182.471 200.441 182.471C199.932 182.471 199.847 181.962 199.847 181.567C199.847 181.142 199.904 180.973 200.13 180.125C200.328 179.276 200.385 179.078 200.554 178.343L201.261 175.573C201.403 175.007 201.403 174.979 201.403 174.894C201.403 174.555 201.177 174.357 200.837 174.357C200.356 174.357 200.045 174.809 199.989 175.233ZM198.716 180.351C198.603 180.718 198.603 180.747 198.32 181.086C197.443 182.16 196.651 182.471 196.085 182.471C195.096 182.471 194.813 181.397 194.813 180.634C194.813 179.644 195.463 177.212 195.916 176.308C196.538 175.148 197.415 174.413 198.207 174.413C199.48 174.413 199.762 176.025 199.762 176.138C199.762 176.251 199.734 176.392 199.706 176.477L198.716 180.351Z" fill="black"/>
<path d="M207.145 172.594C207.371 172.367 207.965 171.887 208.22 171.689C209.097 170.869 209.945 170.077 209.945 168.777C209.945 167.052 208.503 165.949 206.721 165.949C204.967 165.949 203.836 167.25 203.836 168.55C203.836 169.257 204.402 169.342 204.6 169.342C204.911 169.342 205.363 169.144 205.363 168.579C205.363 167.844 204.628 167.844 204.458 167.844C204.882 166.769 205.844 166.43 206.551 166.43C207.881 166.43 208.588 167.561 208.588 168.777C208.588 170.275 207.541 171.378 205.816 173.102L204.006 174.997C203.836 175.138 203.836 175.166 203.836 175.534H209.521L209.945 172.961H209.493C209.464 173.244 209.351 173.951 209.182 174.233C209.097 174.347 207.994 174.347 207.767 174.347H205.194L207.145 172.594Z" fill="black"/>
<path d="M214.611 163.574C214.611 163.234 214.583 163.234 214.243 163.234C213.536 163.941 212.433 163.941 212.037 163.941V164.365C212.32 164.365 213.055 164.365 213.706 164.054V169.511C213.706 169.879 213.706 170.02 212.575 170.02H212.122V170.444C212.716 170.388 213.564 170.388 214.158 170.388C214.752 170.388 215.601 170.388 216.195 170.444V170.02H215.742C214.611 170.02 214.611 169.879 214.611 169.511V163.574Z" fill="black"/>
<path d="M225.367 158.332H171.062" stroke="black" stroke-width="1.33333" stroke-miterlimit="10" stroke-linecap="round" stroke-linejoin="round"/>
<path d="M171.062 158.332V189.094" stroke="black" stroke-width="1.33333" stroke-miterlimit="10" stroke-linecap="round" stroke-linejoin="round"/>
<path d="M171.062 189.094H225.367" stroke="black" stroke-width="1.33333" stroke-miterlimit="10" stroke-linecap="round" stroke-linejoin="round"/>
<path d="M225.366 189.096V158.334" stroke="black" stroke-width="1.33333" stroke-miterlimit="10" stroke-linecap="round" stroke-linejoin="round"/>
<path d="M171.061 172.809H156.58" stroke="black" stroke-width="1.33333" stroke-miterlimit="10" stroke-linecap="round" stroke-linejoin="round"/>
<path d="M238.037 172.809H225.366" stroke="black" stroke-width="1.33333" stroke-miterlimit="10" stroke-linecap="round" stroke-linejoin="round"/>
<path d="M244.993 172.552C244.993 171.958 244.513 171.506 243.947 171.506C243.381 171.506 242.9 171.958 242.9 172.552C242.9 173.117 243.381 173.57 243.947 173.57C244.513 173.57 244.993 173.117 244.993 172.552Z" fill="black"/>
<path d="M253.777 172.552C253.777 171.958 253.296 171.506 252.73 171.506C252.164 171.506 251.684 171.958 251.684 172.552C251.684 173.117 252.164 173.57 252.73 173.57C253.296 173.57 253.777 173.117 253.777 172.552Z" fill="black"/>
<path d="M262.541 172.552C262.541 171.958 262.06 171.506 261.495 171.506C260.929 171.506 260.448 171.958 260.448 172.552C260.448 173.117 260.929 173.57 261.495 173.57C262.06 173.57 262.541 173.117 262.541 172.552Z" fill="black"/>
<path d="M298.822 171.303C299.02 170.483 299.388 169.89 300.972 169.833C301.057 169.833 301.283 169.805 301.283 169.437C301.283 169.409 301.283 169.211 301.029 169.211C300.378 169.211 299.699 169.267 299.02 169.267C298.342 169.267 297.635 169.211 296.984 169.211C296.843 169.211 296.616 169.211 296.616 169.607C296.616 169.833 296.814 169.833 296.984 169.833C298.087 169.861 298.313 170.257 298.313 170.709C298.313 170.766 298.285 171.049 298.257 171.105L296.475 178.145C295.796 180.803 293.533 182.528 291.554 182.528C290.224 182.528 289.149 181.651 289.149 179.955C289.149 179.927 289.149 179.276 289.376 178.428L291.299 170.738C291.469 170.031 291.497 169.833 292.939 169.833C293.449 169.833 293.618 169.833 293.618 169.437C293.618 169.211 293.392 169.211 293.335 169.211C292.798 169.211 291.356 169.267 290.818 169.267C290.252 169.267 288.838 169.211 288.273 169.211C288.103 169.211 287.905 169.211 287.905 169.607C287.905 169.833 288.075 169.833 288.442 169.833C288.471 169.833 288.867 169.833 289.206 169.861C289.545 169.918 289.715 169.918 289.715 170.172C289.715 170.314 289.517 171.134 289.404 171.586L288.951 173.311C288.782 174.102 287.82 177.834 287.763 178.202C287.622 178.739 287.622 179.05 287.622 179.333C287.622 181.736 289.404 183.122 291.497 183.122C293.986 183.122 296.418 180.888 297.069 178.287L298.822 171.303Z" fill="black"/>
<path d="M309.283 175.233C308.943 174.498 308.377 173.961 307.472 173.961C305.153 173.961 302.721 176.873 302.721 179.757C302.721 181.623 303.795 182.924 305.351 182.924C305.747 182.924 306.737 182.839 307.897 181.425C308.066 182.273 308.773 182.924 309.707 182.924C310.386 182.924 310.838 182.471 311.178 181.821C311.517 181.114 311.772 179.927 311.772 179.87C311.772 179.672 311.574 179.672 311.517 179.672C311.319 179.672 311.319 179.757 311.234 180.04C310.923 181.312 310.555 182.471 309.735 182.471C309.226 182.471 309.141 181.962 309.141 181.567C309.141 181.142 309.198 180.973 309.424 180.125C309.622 179.276 309.679 179.078 309.848 178.343L310.555 175.573C310.697 175.007 310.697 174.979 310.697 174.894C310.697 174.555 310.47 174.357 310.131 174.357C309.65 174.357 309.339 174.809 309.283 175.233ZM308.01 180.351C307.897 180.718 307.897 180.747 307.614 181.086C306.737 182.16 305.945 182.471 305.379 182.471C304.389 182.471 304.107 181.397 304.107 180.634C304.107 179.644 304.757 177.212 305.21 176.308C305.832 175.148 306.709 174.413 307.501 174.413C308.773 174.413 309.056 176.025 309.056 176.138C309.056 176.251 309.028 176.392 309 176.477L308.01 180.351Z" fill="black"/>
<path d="M316.441 172.594C316.667 172.367 317.261 171.887 317.516 171.689C318.393 170.869 319.241 170.077 319.241 168.777C319.241 167.052 317.799 165.949 316.017 165.949C314.263 165.949 313.132 167.25 313.132 168.55C313.132 169.257 313.698 169.342 313.896 169.342C314.207 169.342 314.659 169.144 314.659 168.579C314.659 167.844 313.924 167.844 313.754 167.844C314.178 166.769 315.14 166.43 315.847 166.43C317.176 166.43 317.884 167.561 317.884 168.777C317.884 170.275 316.837 171.378 315.112 173.102L313.302 174.997C313.132 175.138 313.132 175.166 313.132 175.534H318.817L319.241 172.961H318.789C318.76 173.244 318.647 173.951 318.477 174.233C318.393 174.347 317.29 174.347 317.063 174.347H314.489L316.441 172.594Z" fill="black"/>
<path d="M325.859 168.408H325.463C325.434 168.578 325.321 169.285 325.18 169.398C325.095 169.483 324.218 169.483 324.049 169.483H322.04L323.426 168.352C323.794 168.041 324.756 167.362 325.095 167.023C325.406 166.712 325.859 166.147 325.859 165.383C325.859 164.026 324.643 163.234 323.172 163.234C321.786 163.234 320.824 164.167 320.824 165.185C320.824 165.722 321.277 165.807 321.39 165.807C321.673 165.807 321.984 165.609 321.984 165.214C321.984 164.987 321.842 164.62 321.362 164.62C321.616 164.083 322.267 163.658 323.03 163.658C324.162 163.658 324.756 164.507 324.756 165.383C324.756 166.147 324.247 166.938 323.511 167.645L320.937 169.992C320.824 170.105 320.824 170.105 320.824 170.444H325.519L325.859 168.408Z" fill="black"/>
<path d="M329.813 166.684C329.757 165.864 328.993 165.666 328.597 165.666C328.173 165.666 327.89 165.92 327.72 166.26C327.437 166.712 327.296 167.278 327.296 167.334C327.296 167.447 327.409 167.476 327.494 167.476C327.664 167.476 327.692 167.419 327.748 167.249C327.946 166.373 328.229 166.034 328.569 166.034C328.965 166.034 328.965 166.458 328.965 166.571C328.965 166.74 328.852 167.193 328.767 167.476C328.682 167.787 328.597 168.211 328.54 168.465C328.456 168.72 328.399 169.002 328.314 169.285C328.229 169.596 328.116 170.133 328.116 170.19C328.116 170.444 328.286 170.557 328.484 170.557C328.682 170.557 328.88 170.416 328.965 170.246C328.965 170.19 329.078 169.822 329.134 169.596L329.361 168.635C329.445 168.352 329.474 168.154 329.559 167.9C329.643 167.532 330.011 166.967 330.435 166.571C330.633 166.345 331.114 166.034 331.68 166.034C332.387 166.034 332.387 166.571 332.387 166.797C332.387 167.419 331.934 168.578 331.736 169.059C331.652 169.257 331.595 169.426 331.595 169.624C331.595 170.162 332.076 170.557 332.67 170.557C333.773 170.557 334.31 169.115 334.31 168.889C334.31 168.861 334.31 168.72 334.112 168.72C333.971 168.72 333.943 168.776 333.886 169.002C333.716 169.568 333.264 170.19 332.698 170.19C332.5 170.19 332.415 170.02 332.415 169.794C332.415 169.596 332.5 169.398 332.585 169.172C332.755 168.748 333.236 167.532 333.236 166.938C333.236 166.034 332.557 165.666 331.736 165.666C331.199 165.666 330.52 165.836 329.813 166.684Z" fill="black"/>
<path d="M343.599 168.013C343.769 168.013 344.052 168.013 344.052 167.73C344.052 167.447 343.769 167.447 343.599 167.447H336.783C336.585 167.447 336.33 167.447 336.33 167.73C336.33 168.013 336.585 168.013 336.783 168.013H343.599Z" fill="black"/>
<path d="M349.268 163.574C349.268 163.234 349.24 163.234 348.9 163.234C348.193 163.941 347.09 163.941 346.694 163.941V164.365C346.977 164.365 347.713 164.365 348.363 164.054V169.511C348.363 169.879 348.363 170.02 347.232 170.02H346.779V170.444C347.373 170.388 348.222 170.388 348.816 170.388C349.41 170.388 350.258 170.388 350.852 170.444V170.02H350.4C349.268 170.02 349.268 169.879 349.268 169.511V163.574Z" fill="black"/>
<path d="M359.318 158.332H279.671" stroke="black" stroke-width="1.33333" stroke-miterlimit="10" stroke-linecap="round" stroke-linejoin="round"/>
<path d="M279.671 158.332V189.094" stroke="black" stroke-width="1.33333" stroke-miterlimit="10" stroke-linecap="round" stroke-linejoin="round"/>
<path d="M279.671 189.094H359.318" stroke="black" stroke-width="1.33333" stroke-miterlimit="10" stroke-linecap="round" stroke-linejoin="round"/>
<path d="M359.318 189.094V158.332" stroke="black" stroke-width="1.33333" stroke-miterlimit="10" stroke-linecap="round" stroke-linejoin="round"/>
<path d="M279.671 172.809H267" stroke="black" stroke-width="1.33333" stroke-miterlimit="10" stroke-linecap="round" stroke-linejoin="round"/>
<path d="M415.434 172.809H359.318" stroke="black" stroke-width="1.33333" stroke-miterlimit="10" stroke-linecap="round" stroke-linejoin="round"/>
</svg>
