<svg width="26" height="25" viewBox="0 0 26 25" fill="none" xmlns="http://www.w3.org/2000/svg">
<path d="M1.18071 20.7337C3.56876 15.4926 6.42351 10.2823 9.38444 5.56513C10.0268 4.54174 10.6157 3.25813 11.3914 2.39881C11.766 1.9838 12.223 1.73099 12.5919 1.32575C13.057 0.814732 13.0619 1.8843 13.1857 2.38948C13.9538 5.52387 13.8767 9.1113 14.247 12.3471C14.6239 15.6402 15.1713 18.7661 16.2152 21.8054C16.5324 22.729 17.6145 25.2502 17.605 24.2376C17.6007 23.7795 16.5087 22.3284 16.2598 22.01C14.6877 19.9992 13.0635 17.9889 11.4475 16.039C10.3439 14.7073 9.28401 13.2998 8.09955 12.0885C7.22042 11.1894 6.24862 10.482 5.37034 9.58384C4.61097 8.80725 3.83534 8.0889 3.04965 7.36209C2.71569 7.05314 2.22884 6.83416 1.94453 6.44629C1.90137 6.3874 4.70123 6.37097 5.03442 6.39808C8.49751 6.67994 11.9385 7.61034 15.4026 7.99046C18.1492 8.29183 20.8558 8.33459 23.6084 8.29165C24.1005 8.28397 24.5438 8.26748 25.0196 8.43758C25.2877 8.53343 24.3082 9.09461 24.158 9.19745C21.7549 10.8424 19.1269 12.0358 16.6134 13.3552C13.3428 15.072 10.0074 16.681 6.6679 18.1476C5.32735 18.7363 3.87322 19.1232 2.58254 19.8721" stroke="black" stroke-linecap="round"/>
</svg>
