<svg width="44" height="33" viewBox="0 0 44 33" fill="none" xmlns="http://www.w3.org/2000/svg">
<path d="M1.31334 27.4681C5.45409 20.4382 10.4041 13.4496 15.5382 7.12244C16.652 5.74975 17.6731 4.02805 19.0181 2.87544C19.6677 2.31878 20.4601 1.97969 21.0997 1.43614C21.9061 0.750707 21.9147 2.18532 22.1293 2.86293C23.4611 7.0671 23.3274 11.8789 23.9696 16.2191C24.6232 20.6362 25.5722 24.8289 27.3823 28.9056C27.9323 30.1444 29.8086 33.5261 29.7922 32.1679C29.7848 31.5535 27.8913 29.6071 27.4596 29.18C24.7338 26.4829 21.9175 23.7866 19.1154 21.171C17.2017 19.3848 15.364 17.4969 13.3102 15.8722C11.7859 14.6663 10.1008 13.7175 8.57794 12.5127C7.26122 11.4711 5.91632 10.5076 4.55399 9.5327C3.97491 9.11831 3.13074 8.82459 2.63777 8.30433C2.56293 8.22535 7.41774 8.20331 7.99546 8.23968C14.0003 8.61774 19.9668 9.86568 25.9734 10.3755C30.7357 10.7798 35.4289 10.8371 40.2017 10.7795C41.0551 10.7692 41.8237 10.7471 42.6487 10.9753C43.1135 11.1038 41.4152 11.8565 41.1547 11.9945C36.9878 14.2009 32.431 15.8016 28.0727 17.5713C22.4017 19.874 16.6183 22.0322 10.8278 23.9993C8.50339 24.7889 5.98201 25.308 3.74404 26.3124" stroke="black" stroke-linecap="round"/>
</svg>
